u2194_ 700 - 160.ufo
<glyph name="exclam" format="1">
  <advance width="420"/>
  <unicode hex="0021"/>
  <outline>
    <contour>
      <point x="210" y="-159" type="curve" smooth="yes"/>
      <point x="296" y="-159"/>
      <point x="370" y="-85"/>
      <point x="370" y="1" type="curve" smooth="yes"/>
      <point x="370" y="18" type="line" smooth="yes"/>
      <point x="370" y="52"/>
      <point x="359" y="83"/>
      <point x="340" y="110" type="curve"/>
      <point x="359" y="136"/>
      <point x="370" y="167"/>
      <point x="370" y="201" type="curve" smooth="yes"/>
      <point x="370" y="801" type="line" smooth="yes"/>
      <point x="370" y="887"/>
      <point x="296" y="961"/>
      <point x="210" y="961" type="curve" smooth="yes"/>
      <point x="124" y="961"/>
      <point x="50" y="887"/>
      <point x="50" y="801" type="curve" smooth="yes"/>
      <point x="50" y="201" type="line" smooth="yes"/>
      <point x="50" y="167"/>
      <point x="61" y="136"/>
      <point x="80" y="109" type="curve"/>
      <point x="61" y="83"/>
      <point x="50" y="52"/>
      <point x="50" y="18" type="curve" smooth="yes"/>
      <point x="50" y="1" type="line" smooth="yes"/>
      <point x="50" y="-85"/>
      <point x="124" y="-159"/>
    </contour>
  </outline>
</glyph>
<glyph name="dollar" format="1">
  <advance width="1019"/>
  <unicode hex="0024"/>
  <outline>
    <contour>
      <point x="670" y="-1" type="curve" smooth="yes"/>
      <point x="670" y="507" type="line"/>
      <point x="708" y="476" type="line" smooth="yes"/>
      <point x="775" y="421"/>
      <point x="878" y="431"/>
      <point x="933" y="497" type="curve" smooth="yes"/>
      <point x="988" y="564"/>
      <point x="978" y="667"/>
      <point x="912" y="722" type="curve" smooth="yes"/>
      <point x="670" y="922" type="line" smooth="yes"/>
      <point x="628" y="957"/>
      <point x="578" y="967"/>
      <point x="533" y="957" type="curve"/>
      <point x="525" y="958"/>
      <point x="518" y="959"/>
      <point x="510" y="959" type="curve" smooth="yes"/>
      <point x="424" y="959"/>
      <point x="350" y="885"/>
      <point x="350" y="799" type="curve" smooth="yes"/>
      <point x="350" y="747" type="line"/>
      <point x="72" y="281" type="line" smooth="yes"/>
      <point x="27" y="207"/>
      <point x="53" y="106"/>
      <point x="127" y="62" type="curve" smooth="yes"/>
      <point x="201" y="17"/>
      <point x="302" y="43"/>
      <point x="346" y="117" type="curve" smooth="yes"/>
      <point x="350" y="123" type="line"/>
      <point x="350" y="-1" type="line" smooth="yes"/>
      <point x="350" y="-87"/>
      <point x="424" y="-161"/>
      <point x="510" y="-161" type="curve" smooth="yes"/>
      <point x="596" y="-161"/>
      <point x="670" y="-87"/>
    </contour>
  </outline>
</glyph>
<glyph name="ampersand" format="1">
  <advance width="820"/>
  <unicode hex="0026"/>
  <outline>
    <contour>
      <point x="707" y="-127" type="curve" smooth="yes"/>
      <point x="776" y="-75"/>
      <point x="791" y="28"/>
      <point x="739" y="97" type="curve" smooth="yes"/>
      <point x="631" y="241" type="line"/>
      <point x="708" y="252"/>
      <point x="770" y="320"/>
      <point x="770" y="400" type="curve" smooth="yes"/>
      <point x="770" y="486"/>
      <point x="697" y="560"/>
      <point x="610" y="560" type="curve" smooth="yes"/>
      <point x="210" y="561" type="line" smooth="yes"/>
      <point x="124" y="561"/>
      <point x="50" y="488"/>
      <point x="50" y="401" type="curve" smooth="yes"/>
      <point x="50" y="315"/>
      <point x="123" y="241"/>
      <point x="210" y="241" type="curve" smooth="yes"/>
      <point x="231" y="241" type="line"/>
      <point x="483" y="-95" type="line" smooth="yes"/>
      <point x="535" y="-164"/>
      <point x="638" y="-179"/>
    </contour>
  </outline>
</glyph>
<glyph name="period" format="1">
  <advance width="420"/>
  <unicode hex="002E"/>
  <outline>
    <contour>
      <point x="210" y="170" type="curve" smooth="yes"/>
      <point x="124" y="170"/>
      <point x="50" y="96"/>
      <point x="50" y="10" type="curve" smooth="yes"/>
      <point x="50" y="0" type="line" smooth="yes"/>
      <point x="50" y="-86"/>
      <point x="124" y="-160"/>
      <point x="210" y="-160" type="curve" smooth="yes"/>
      <point x="296" y="-160"/>
      <point x="370" y="-86"/>
      <point x="370" y="0" type="curve" smooth="yes"/>
      <point x="370" y="10" type="line" smooth="yes"/>
      <point x="370" y="96"/>
      <point x="296" y="170"/>
    </contour>
  </outline>
</glyph>
<glyph name="zero" format="1">
  <advance width="1027"/>
  <unicode hex="0030"/>
  <outline>
    <contour>
      <point x="526" y="-113" type="curve" smooth="yes"/>
      <point x="538" y="-101"/>
      <point x="548" y="-88"/>
      <point x="556" y="-73" type="curve"/>
      <point x="944" y="480" type="line" smooth="yes"/>
      <point x="1001" y="562"/>
      <point x="980" y="651"/>
      <point x="923" y="699" type="curve"/>
      <point x="935" y="758"/>
      <point x="914" y="823"/>
      <point x="864" y="862" type="curve" smooth="yes"/>
      <point x="795" y="914"/>
      <point x="692" y="900"/>
      <point x="639" y="831" type="curve" smooth="yes"/>
      <point x="394" y="507" type="line"/>
      <point x="131" y="349" type="line" smooth="yes"/>
      <point x="38" y="294"/>
      <point x="23" y="179"/>
      <point x="98" y="101" type="curve" smooth="yes"/>
      <point x="99" y="99" type="line"/>
      <point x="83" y="38"/>
      <point x="104" y="-32"/>
      <point x="156" y="-72" type="curve" smooth="yes"/>
      <point x="195" y="-101"/>
      <point x="244" y="-109"/>
      <point x="289" y="-99" type="curve"/>
      <point x="298" y="-110"/>
      <point x="309" y="-120"/>
      <point x="321" y="-129" type="curve" smooth="yes"/>
      <point x="350" y="-149"/>
      <point x="385" y="-158"/>
      <point x="419" y="-157" type="curve"/>
      <point x="458" y="-156"/>
      <point x="497" y="-142"/>
    </contour>
  </outline>
</glyph>
<glyph name="one" format="1">
  <advance width="1020"/>
  <unicode hex="0031"/>
  <outline>
    <contour>
      <point x="210" y="-159" type="curve" smooth="yes"/>
      <point x="810" y="-159" type="line" smooth="yes"/>
      <point x="896" y="-159"/>
      <point x="970" y="-85"/>
      <point x="970" y="1" type="curve" smooth="yes"/>
      <point x="970" y="87"/>
      <point x="896" y="161"/>
      <point x="810" y="161" type="curve" smooth="yes"/>
      <point x="525" y="161" type="line"/>
      <point x="663" y="625" type="line" smooth="yes"/>
      <point x="701" y="753"/>
      <point x="603" y="857"/>
      <point x="474" y="827" type="curve" smooth="yes"/>
      <point x="174" y="757" type="line" smooth="yes"/>
      <point x="90" y="737"/>
      <point x="35" y="649"/>
      <point x="54" y="565" type="curve" smooth="yes"/>
      <point x="74" y="481"/>
      <point x="162" y="426"/>
      <point x="246" y="445" type="curve" smooth="yes"/>
      <point x="278" y="453" type="line"/>
      <point x="190" y="160" type="line"/>
      <point x="113" y="150"/>
      <point x="50" y="81"/>
      <point x="50" y="1" type="curve" smooth="yes"/>
      <point x="50" y="-85"/>
      <point x="124" y="-159"/>
    </contour>
  </outline>
</glyph>
<glyph name="two" format="1">
  <advance width="1020"/>
  <unicode hex="0032"/>
  <outline>
    <contour>
      <point x="815" y="-160" type="curve" smooth="yes"/>
      <point x="901" y="-157"/>
      <point x="972" y="-82"/>
      <point x="970" y="5" type="curve" smooth="yes"/>
      <point x="950" y="695" type="line" smooth="yes"/>
      <point x="947" y="795"/>
      <point x="864" y="864"/>
      <point x="765" y="849" type="curve" smooth="yes"/>
      <point x="185" y="758" type="line" smooth="yes"/>
      <point x="100" y="745"/>
      <point x="39" y="661"/>
      <point x="52" y="575" type="curve" smooth="yes"/>
      <point x="65" y="490"/>
      <point x="149" y="429"/>
      <point x="235" y="442" type="curve" smooth="yes"/>
      <point x="635" y="505" type="line"/>
      <point x="650" y="-5" type="line" smooth="yes"/>
      <point x="653" y="-91"/>
      <point x="728" y="-162"/>
    </contour>
  </outline>
</glyph>
<glyph name="three" format="1">
  <advance width="1028"/>
  <unicode hex="0033"/>
  <outline>
    <contour>
      <point x="222" y="41" type="curve" smooth="yes"/>
      <point x="821" y="85" type="line" smooth="yes"/>
      <point x="989" y="97"/>
      <point x="1036" y="295"/>
      <point x="891" y="382" type="curve" smooth="yes"/>
      <point x="292" y="738" type="line" smooth="yes"/>
      <point x="218" y="783"/>
      <point x="117" y="757"/>
      <point x="73" y="683" type="curve" smooth="yes"/>
      <point x="28" y="609"/>
      <point x="54" y="508"/>
      <point x="128" y="464" type="curve" smooth="yes"/>
      <point x="290" y="367" type="line"/>
      <point x="198" y="361" type="line" smooth="yes"/>
      <point x="112" y="354"/>
      <point x="44" y="276"/>
      <point x="50" y="189" type="curve" smooth="yes"/>
      <point x="57" y="103"/>
      <point x="135" y="35"/>
    </contour>
  </outline>
</glyph>
<glyph name="four" format="1">
  <advance width="780"/>
  <unicode hex="0034"/>
  <outline>
    <contour>
      <point x="570" y="-159" type="curve" smooth="yes"/>
      <point x="656" y="-159"/>
      <point x="730" y="-85"/>
      <point x="730" y="1" type="curve" smooth="yes"/>
      <point x="730" y="600" type="line" smooth="yes"/>
      <point x="730" y="686"/>
      <point x="656" y="760"/>
      <point x="570" y="760" type="curve" smooth="yes"/>
      <point x="503" y="760"/>
      <point x="443" y="716"/>
      <point x="420" y="655" type="curve"/>
      <point x="395" y="697" type="line"/>
      <point x="407" y="718" type="line" smooth="yes"/>
      <point x="452" y="792"/>
      <point x="426" y="893"/>
      <point x="352" y="937" type="curve" smooth="yes"/>
      <point x="278" y="982"/>
      <point x="177" y="956"/>
      <point x="133" y="882" type="curve" smooth="yes"/>
      <point x="71" y="779" type="line" smooth="yes"/>
      <point x="43" y="733"/>
      <point x="43" y="659"/>
      <point x="71" y="614" type="curve" smooth="yes"/>
      <point x="410" y="55" type="line"/>
      <point x="410" y="1" type="line" smooth="yes"/>
      <point x="410" y="-85"/>
      <point x="484" y="-159"/>
    </contour>
  </outline>
</glyph>
<glyph name="five" format="1">
  <advance width="1019"/>
  <unicode hex="0035"/>
  <outline>
    <contour>
      <point x="346" y="119" type="curve" smooth="yes"/>
      <point x="660" y="641" type="line"/>
      <point x="809" y="641" type="line" smooth="yes"/>
      <point x="895" y="641"/>
      <point x="969" y="715"/>
      <point x="969" y="801" type="curve" smooth="yes"/>
      <point x="969" y="887"/>
      <point x="895" y="961"/>
      <point x="809" y="961" type="curve" smooth="yes"/>
      <point x="569" y="961" type="line" smooth="yes"/>
      <point x="519" y="961"/>
      <point x="458" y="926"/>
      <point x="432" y="883" type="curve" smooth="yes"/>
      <point x="72" y="283" type="line" smooth="yes"/>
      <point x="27" y="209"/>
      <point x="53" y="108"/>
      <point x="127" y="64" type="curve" smooth="yes"/>
      <point x="201" y="19"/>
      <point x="302" y="45"/>
    </contour>
  </outline>
</glyph>
<glyph name="six" format="1">
  <advance width="1028"/>
  <unicode hex="0036"/>
  <outline>
    <contour>
      <point x="735" y="107" type="line"/>
      <point x="899" y="382" type="line"/>
      <point x="799" y="441" type="line"/>
      <point x="818" y="441" type="line" smooth="yes"/>
      <point x="904" y="441"/>
      <point x="978" y="515"/>
      <point x="978" y="601" type="curve" smooth="yes"/>
      <point x="978" y="687"/>
      <point x="904" y="761"/>
      <point x="818" y="761" type="curve" smooth="yes"/>
      <point x="218" y="761" type="line" smooth="yes"/>
      <point x="43" y="761"/>
      <point x="-14" y="553"/>
      <point x="136" y="464" type="curve" smooth="yes"/>
    </contour>
  </outline>
</glyph>
<glyph name="seven" format="1">
  <advance width="1004"/>
  <unicode hex="0037"/>
  <outline>
    <contour>
      <point x="542" y="-92" type="curve" smooth="yes"/>
      <point x="925" y="483" type="line" smooth="yes"/>
      <point x="984" y="573"/>
      <point x="949" y="683"/>
      <point x="849" y="721" type="curve" smooth="yes"/>
      <point x="267" y="946" type="line" smooth="yes"/>
      <point x="186" y="977"/>
      <point x="91" y="935"/>
      <point x="60" y="855" type="curve" smooth="yes"/>
      <point x="29" y="774"/>
      <point x="71" y="679"/>
      <point x="151" y="648" type="curve" smooth="yes"/>
      <point x="548" y="495" type="line"/>
      <point x="276" y="86" type="line" smooth="yes"/>
      <point x="228" y="14"/>
      <point x="248" y="-88"/>
      <point x="320" y="-136" type="curve" smooth="yes"/>
      <point x="392" y="-184"/>
      <point x="494" y="-164"/>
    </contour>
  </outline>
</glyph>
<glyph name="nine" format="1">
  <advance width="1028"/>
  <unicode hex="0039"/>
  <outline>
    <contour>
      <point x="210" y="40" type="curve" smooth="yes"/>
      <point x="810" y="40" type="line" smooth="yes"/>
      <point x="985" y="40"/>
      <point x="1042" y="248"/>
      <point x="892" y="337" type="curve" smooth="yes"/>
      <point x="293" y="694" type="line"/>
      <point x="129" y="419" type="line"/>
      <point x="229" y="360" type="line"/>
      <point x="210" y="360" type="line" smooth="yes"/>
      <point x="124" y="360"/>
      <point x="50" y="286"/>
      <point x="50" y="200" type="curve" smooth="yes"/>
      <point x="50" y="114"/>
      <point x="124" y="40"/>
    </contour>
  </outline>
</glyph>
<glyph name="equal" format="1">
  <advance width="1020"/>
  <unicode hex="003D"/>
  <outline>
    <contour>
      <point x="210" y="-22" type="curve" smooth="yes"/>
      <point x="810" y="-22" type="line" smooth="yes"/>
      <point x="896" y="-22"/>
      <point x="970" y="52"/>
      <point x="970" y="138" type="curve" smooth="yes"/>
      <point x="970" y="205"/>
      <point x="925" y="265"/>
      <point x="864" y="288" type="curve"/>
      <point x="925" y="311"/>
      <point x="970" y="371"/>
      <point x="970" y="438" type="curve" smooth="yes"/>
      <point x="970" y="524"/>
      <point x="896" y="598"/>
      <point x="810" y="598" type="curve" smooth="yes"/>
      <point x="210" y="598" type="line" smooth="yes"/>
      <point x="124" y="598"/>
      <point x="50" y="524"/>
      <point x="50" y="438" type="curve" smooth="yes"/>
      <point x="50" y="371"/>
      <point x="95" y="311"/>
      <point x="156" y="288" type="curve"/>
      <point x="95" y="265"/>
      <point x="50" y="205"/>
      <point x="50" y="138" type="curve" smooth="yes"/>
      <point x="50" y="52"/>
      <point x="124" y="-22"/>
    </contour>
  </outline>
</glyph>
<glyph name="greater" format="1">
  <advance width="420"/>
  <unicode hex="003E"/>
  <outline>
    <contour>
      <point x="210" y="680" type="curve" smooth="yes"/>
      <point x="124" y="680"/>
      <point x="50" y="606"/>
      <point x="50" y="520" type="curve" smooth="yes"/>
      <point x="50" y="120" type="line" smooth="yes"/>
      <point x="50" y="34"/>
      <point x="124" y="-40"/>
      <point x="210" y="-40" type="curve" smooth="yes"/>
      <point x="296" y="-40"/>
      <point x="370" y="34"/>
      <point x="370" y="120" type="curve" smooth="yes"/>
      <point x="370" y="520" type="line" smooth="yes"/>
      <point x="370" y="606"/>
      <point x="296" y="680"/>
    </contour>
  </outline>
</glyph>
<glyph name="question" format="1">
  <advance width="618"/>
  <unicode hex="003F"/>
  <outline>
    <contour>
      <point x="408" y="-160" type="curve" smooth="yes"/>
      <point x="494" y="-160"/>
      <point x="568" y="-86"/>
      <point x="568" y="0" type="curve" smooth="yes"/>
      <point x="568" y="11" type="line" smooth="yes"/>
      <point x="568" y="46"/>
      <point x="556" y="79"/>
      <point x="536" y="105" type="curve"/>
      <point x="570" y="152"/>
      <point x="578" y="217"/>
      <point x="551" y="271" type="curve" smooth="yes"/>
      <point x="352" y="670" type="line" smooth="yes"/>
      <point x="314" y="748"/>
      <point x="215" y="781"/>
      <point x="138" y="742" type="curve" smooth="yes"/>
      <point x="60" y="704"/>
      <point x="27" y="605"/>
      <point x="66" y="528" type="curve" smooth="yes"/>
      <point x="265" y="129" type="line" smooth="yes"/>
      <point x="269" y="120"/>
      <point x="274" y="112"/>
      <point x="280" y="105" type="curve"/>
      <point x="260" y="78"/>
      <point x="248" y="46"/>
      <point x="248" y="11" type="curve" smooth="yes"/>
      <point x="248" y="0" type="line" smooth="yes"/>
      <point x="248" y="-86"/>
      <point x="322" y="-160"/>
    </contour>
  </outline>
</glyph>
<glyph name="at" format="1">
  <advance width="825"/>
  <unicode hex="0040"/>
  <outline>
    <contour>
      <point x="707" y="-173" type="curve" smooth="yes"/>
      <point x="777" y="-124"/>
      <point x="796" y="-21"/>
      <point x="746" y="50" type="curve" smooth="yes"/>
      <point x="740" y="59" type="line"/>
      <point x="762" y="87"/>
      <point x="775" y="121"/>
      <point x="775" y="158" type="curve" smooth="yes"/>
      <point x="775" y="558" type="line" smooth="yes"/>
      <point x="775" y="560"/>
      <point x="775" y="561"/>
      <point x="775" y="562" type="curve"/>
      <point x="775" y="567"/>
      <point x="775" y="566"/>
      <point x="775" y="564" type="curve"/>
      <point x="775" y="565"/>
      <point x="775" y="565"/>
      <point x="775" y="566" type="curve"/>
      <point x="775" y="568" type="line" smooth="yes"/>
      <point x="772" y="610"/>
      <point x="753" y="647"/>
      <point x="724" y="674" type="curve"/>
      <point x="695" y="701"/>
      <point x="656" y="718"/>
      <point x="615" y="718" type="curve" smooth="yes"/>
      <point x="614" y="718"/>
      <point x="613" y="718"/>
      <point x="611" y="718" type="curve"/>
      <point x="606" y="718"/>
      <point x="608" y="718"/>
      <point x="609" y="718" type="curve"/>
      <point x="608" y="718"/>
      <point x="608" y="718"/>
      <point x="607" y="718" type="curve"/>
      <point x="605" y="718" type="line" smooth="yes"/>
      <point x="205" y="691" type="line" smooth="yes"/>
      <point x="69" y="682"/>
      <point x="6" y="551"/>
      <point x="84" y="440" type="curve" smooth="yes"/>
      <point x="484" y="-134" type="line" smooth="yes"/>
      <point x="533" y="-204"/>
      <point x="636" y="-223"/>
    </contour>
  </outline>
</glyph>
<glyph name="C" format="1">
  <advance width="1029"/>
  <unicode hex="0043"/>
  <outline>
    <contour>
      <point x="979" y="185" type="curve" smooth="yes"/>
      <point x="985" y="271"/>
      <point x="918" y="351"/>
      <point x="832" y="358" type="curve" smooth="yes"/>
      <point x="738" y="365" type="line"/>
      <point x="900" y="460" type="line" smooth="yes"/>
      <point x="975" y="504"/>
      <point x="1001" y="605"/>
      <point x="957" y="679" type="curve" smooth="yes"/>
      <point x="913" y="754"/>
      <point x="812" y="780"/>
      <point x="738" y="736" type="curve" smooth="yes"/>
      <point x="138" y="383" type="line" smooth="yes"/>
      <point x="-8" y="298"/>
      <point x="38" y="99"/>
      <point x="206" y="86" type="curve" smooth="yes"/>
      <point x="806" y="38" type="line" smooth="yes"/>
      <point x="892" y="32"/>
      <point x="972" y="99"/>
    </contour>
  </outline>
</glyph>
<glyph name="D" format="1">
  <advance width="1021"/>
  <unicode hex="0044"/>
  <outline>
    <contour>
      <point x="293" y="101" type="curve" smooth="yes"/>
      <point x="893" y="451" type="line" smooth="yes"/>
      <point x="945" y="481"/>
      <point x="973" y="539"/>
      <point x="971" y="596" type="curve"/>
      <point x="972" y="625"/>
      <point x="965" y="655"/>
      <point x="949" y="681" type="curve" smooth="yes"/>
      <point x="905" y="755"/>
      <point x="804" y="781"/>
      <point x="730" y="736" type="curve" smooth="yes"/>
      <point x="130" y="376" type="line" smooth="yes"/>
      <point x="-52" y="267"/>
      <point x="110" y="-6"/>
    </contour>
  </outline>
</glyph>
<glyph name="F" format="1">
  <advance width="1018"/>
  <unicode hex="0046"/>
  <outline>
    <contour>
      <point x="370" y="-2" type="curve" smooth="yes"/>
      <point x="372" y="154" type="line"/>
      <point x="891" y="465" type="line" smooth="yes"/>
      <point x="965" y="509"/>
      <point x="991" y="610"/>
      <point x="946" y="684" type="curve" smooth="yes"/>
      <point x="902" y="758"/>
      <point x="801" y="784"/>
      <point x="727" y="739" type="curve" smooth="yes"/>
      <point x="132" y="383" type="line" smooth="yes"/>
      <point x="89" y="358"/>
      <point x="55" y="298"/>
      <point x="54" y="248" type="curve" smooth="yes"/>
      <point x="50" y="2" type="line" smooth="yes"/>
      <point x="49" y="-84"/>
      <point x="121" y="-159"/>
      <point x="208" y="-160" type="curve" smooth="yes"/>
      <point x="294" y="-161"/>
      <point x="369" y="-89"/>
    </contour>
  </outline>
</glyph>
<glyph name="H" format="1">
  <advance width="1020"/>
  <unicode hex="0048"/>
  <outline>
    <contour>
      <point x="810" y="-164" type="curve" smooth="yes"/>
      <point x="896" y="-164"/>
      <point x="970" y="-90"/>
      <point x="970" y="-4" type="curve" smooth="yes"/>
      <point x="970" y="696" type="line" smooth="yes"/>
      <point x="970" y="835"/>
      <point x="837" y="906"/>
      <point x="721" y="829" type="curve" smooth="yes"/>
      <point x="379" y="601" type="line"/>
      <point x="370" y="804" type="line" smooth="yes"/>
      <point x="366" y="890"/>
      <point x="289" y="960"/>
      <point x="202" y="956" type="curve" smooth="yes"/>
      <point x="116" y="952"/>
      <point x="46" y="875"/>
      <point x="50" y="788" type="curve" smooth="yes"/>
      <point x="73" y="303" type="line" smooth="yes"/>
      <point x="79" y="168"/>
      <point x="209" y="103"/>
      <point x="322" y="178" type="curve" smooth="yes"/>
      <point x="650" y="397" type="line"/>
      <point x="650" y="-4" type="line" smooth="yes"/>
      <point x="650" y="-90"/>
      <point x="724" y="-164"/>
    </contour>
  </outline>
</glyph>
<glyph name="I" format="1">
  <advance width="1019"/>
  <unicode hex="0049"/>
  <outline>
    <contour>
      <point x="353" y="-71" type="curve" smooth="yes"/>
      <point x="632" y="506" type="line"/>
      <point x="891" y="662" type="line" smooth="yes"/>
      <point x="965" y="706"/>
      <point x="991" y="807"/>
      <point x="946" y="881" type="curve" smooth="yes"/>
      <point x="902" y="955"/>
      <point x="801" y="981"/>
      <point x="727" y="936" type="curve" smooth="yes"/>
      <point x="426" y="756" type="line" smooth="yes"/>
      <point x="404" y="742"/>
      <point x="376" y="712"/>
      <point x="365" y="688" type="curve" smooth="yes"/>
      <point x="65" y="69" type="line" smooth="yes"/>
      <point x="27" y="-9"/>
      <point x="62" y="-107"/>
      <point x="139" y="-145" type="curve" smooth="yes"/>
      <point x="217" y="-183"/>
      <point x="315" y="-148"/>
    </contour>
  </outline>
</glyph>
<glyph name="L" format="1">
  <advance width="1020"/>
  <unicode hex="004C"/>
  <outline>
    <contour>
      <point x="967" y="-29" type="curve" smooth="yes"/>
      <point x="983" y="56"/>
      <point x="924" y="142"/>
      <point x="839" y="157" type="curve" smooth="yes"/>
      <point x="379" y="242" type="line"/>
      <point x="370" y="803" type="line" smooth="yes"/>
      <point x="369" y="889"/>
      <point x="294" y="961"/>
      <point x="207" y="960" type="curve" smooth="yes"/>
      <point x="121" y="959"/>
      <point x="49" y="884"/>
      <point x="50" y="797" type="curve" smooth="yes"/>
      <point x="62" y="106" type="line" smooth="yes"/>
      <point x="63" y="34"/>
      <point x="122" y="-35"/>
      <point x="193" y="-49" type="curve" smooth="yes"/>
      <point x="781" y="-157" type="line" smooth="yes"/>
      <point x="866" y="-173"/>
      <point x="952" y="-114"/>
    </contour>
  </outline>
</glyph>
<glyph name="M" format="1">
  <advance width="1020"/>
  <unicode hex="004D"/>
  <outline>
    <contour>
      <point x="810" y="-161" type="curve" smooth="yes"/>
      <point x="896" y="-161"/>
      <point x="970" y="-87"/>
      <point x="970" y="-1" type="curve" smooth="yes"/>
      <point x="970" y="699" type="line" smooth="yes"/>
      <point x="970" y="834"/>
      <point x="843" y="906"/>
      <point x="728" y="836" type="curve" smooth="yes"/>
      <point x="128" y="476" type="line" smooth="yes"/>
      <point x="85" y="450"/>
      <point x="50" y="389"/>
      <point x="50" y="339" type="curve"/>
      <point x="50" y="-1" type="line" smooth="yes"/>
      <point x="50" y="-87"/>
      <point x="124" y="-161"/>
      <point x="210" y="-161" type="curve" smooth="yes"/>
      <point x="296" y="-161"/>
      <point x="370" y="-87"/>
      <point x="370" y="-1" type="curve" smooth="yes"/>
      <point x="370" y="248" type="line"/>
      <point x="650" y="416" type="line"/>
      <point x="650" y="-1" type="line" smooth="yes"/>
      <point x="650" y="-87"/>
      <point x="724" y="-161"/>
    </contour>
  </outline>
</glyph>
<glyph name="N" format="1">
  <advance width="1020"/>
  <unicode hex="004E"/>
  <outline>
    <contour>
      <point x="370" y="-1" type="curve" smooth="yes"/>
      <point x="370" y="45" type="line"/>
      <point x="502" y="344" type="line"/>
      <point x="668" y="25" type="line" smooth="yes"/>
      <point x="751" y="-134"/>
      <point x="970" y="-80"/>
      <point x="970" y="99" type="curve" smooth="yes"/>
      <point x="970" y="799" type="line" smooth="yes"/>
      <point x="970" y="885"/>
      <point x="896" y="959"/>
      <point x="810" y="959" type="curve" smooth="yes"/>
      <point x="724" y="959"/>
      <point x="650" y="885"/>
      <point x="650" y="799" type="curve" smooth="yes"/>
      <point x="650" y="752" type="line"/>
      <point x="632" y="787" type="line" smooth="yes"/>
      <point x="564" y="917"/>
      <point x="402" y="911"/>
      <point x="343" y="777" type="curve" smooth="yes"/>
      <point x="64" y="144" type="line" smooth="yes"/>
      <point x="56" y="127"/>
      <point x="50" y="98"/>
      <point x="50" y="79" type="curve" smooth="yes"/>
      <point x="50" y="-1" type="line" smooth="yes"/>
      <point x="50" y="-87"/>
      <point x="124" y="-161"/>
      <point x="210" y="-161" type="curve" smooth="yes"/>
      <point x="296" y="-161"/>
      <point x="370" y="-87"/>
    </contour>
  </outline>
</glyph>
<glyph name="P" format="1">
  <advance width="1021"/>
  <unicode hex="0050"/>
  <outline>
    <contour>
      <point x="210" y="-157" type="curve" smooth="yes"/>
      <point x="296" y="-157"/>
      <point x="370" y="-83"/>
      <point x="370" y="3" type="curve" smooth="yes"/>
      <point x="370" y="8" type="line"/>
      <point x="891" y="318" type="line" smooth="yes"/>
      <point x="1073" y="427"/>
      <point x="911" y="701"/>
      <point x="728" y="594" type="curve" smooth="yes"/>
      <point x="129" y="241" type="line" smooth="yes"/>
      <point x="85" y="215"/>
      <point x="50" y="154"/>
      <point x="50" y="103" type="curve"/>
      <point x="50" y="3" type="line" smooth="yes"/>
      <point x="50" y="-83"/>
      <point x="124" y="-157"/>
    </contour>
  </outline>
</glyph>
<glyph name="Q" format="1">
  <advance width="1023"/>
  <unicode hex="0051"/>
  <outline>
    <contour>
      <point x="770" y="-46" type="curve" smooth="yes"/>
      <point x="965" y="621" type="line" smooth="yes"/>
      <point x="1010" y="773"/>
      <point x="866" y="885"/>
      <point x="730" y="804" type="curve" smooth="yes"/>
      <point x="133" y="446" type="line" smooth="yes"/>
      <point x="30" y="385"/>
      <point x="22" y="258"/>
      <point x="116" y="184" type="curve" smooth="yes"/>
      <point x="507" y="-126" type="line" smooth="yes"/>
      <point x="533" y="-148"/>
      <point x="565" y="-158"/>
      <point x="598" y="-160" type="curve"/>
      <point x="673" y="-168"/>
      <point x="748" y="-120"/>
    </contour>
    <contour>
      <point x="527" y="265" type="line"/>
      <point x="496" y="291" type="line"/>
      <point x="543" y="319" type="line"/>
    </contour>
  </outline>
</glyph>
<glyph name="R" format="1">
  <advance width="1019"/>
  <unicode hex="0052"/>
  <outline>
    <contour>
      <point x="305" y="-132" type="curve" smooth="yes"/>
      <point x="510" y="21" type="line"/>
      <point x="714" y="-132" type="line" smooth="yes"/>
      <point x="783" y="-184"/>
      <point x="886" y="-169"/>
      <point x="938" y="-100" type="curve" smooth="yes"/>
      <point x="990" y="-31"/>
      <point x="975" y="72"/>
      <point x="906" y="124" type="curve" smooth="yes"/>
      <point x="757" y="235" type="line"/>
      <point x="777" y="286"/>
      <point x="772" y="346"/>
      <point x="738" y="392" type="curve" smooth="yes"/>
      <point x="686" y="461"/>
      <point x="583" y="476"/>
      <point x="514" y="424" type="curve" smooth="yes"/>
      <point x="510" y="421" type="line"/>
      <point x="505" y="424" type="line" smooth="yes"/>
      <point x="436" y="476"/>
      <point x="333" y="461"/>
      <point x="281" y="392" type="curve" smooth="yes"/>
      <point x="247" y="346"/>
      <point x="242" y="286"/>
      <point x="262" y="235" type="curve"/>
      <point x="113" y="124" type="line" smooth="yes"/>
      <point x="44" y="72"/>
      <point x="29" y="-31"/>
      <point x="81" y="-100" type="curve" smooth="yes"/>
      <point x="133" y="-169"/>
      <point x="236" y="-184"/>
    </contour>
  </outline>
</glyph>
<glyph name="T" format="1">
  <advance width="732"/>
  <unicode hex="0054"/>
  <outline>
    <contour>
      <point x="670" y="-3" type="curve" smooth="yes"/>
      <point x="682" y="694" type="line" smooth="yes"/>
      <point x="683" y="759"/>
      <point x="634" y="828"/>
      <point x="573" y="849" type="curve" smooth="yes"/>
      <point x="260" y="952" type="line" smooth="yes"/>
      <point x="178" y="979"/>
      <point x="85" y="932"/>
      <point x="58" y="850" type="curve" smooth="yes"/>
      <point x="31" y="768"/>
      <point x="78" y="675"/>
      <point x="160" y="648" type="curve" smooth="yes"/>
      <point x="360" y="582" type="line"/>
      <point x="350" y="3" type="line" smooth="yes"/>
      <point x="348" y="-84"/>
      <point x="421" y="-158"/>
      <point x="507" y="-160" type="curve" smooth="yes"/>
      <point x="594" y="-162"/>
      <point x="668" y="-89"/>
    </contour>
  </outline>
</glyph>
<glyph name="U" format="1">
  <advance width="1019"/>
  <unicode hex="0055"/>
  <outline>
    <contour>
      <point x="958" y="97" type="curve" smooth="yes"/>
      <point x="969" y="797" type="line" smooth="yes"/>
      <point x="970" y="883"/>
      <point x="898" y="958"/>
      <point x="811" y="959" type="curve" smooth="yes"/>
      <point x="725" y="960"/>
      <point x="650" y="888"/>
      <point x="649" y="801" type="curve" smooth="yes"/>
      <point x="643" y="386" type="line"/>
      <point x="370" y="557" type="line"/>
      <point x="370" y="799" type="line" smooth="yes"/>
      <point x="370" y="885"/>
      <point x="296" y="959"/>
      <point x="210" y="959" type="curve" smooth="yes"/>
      <point x="124" y="959"/>
      <point x="50" y="885"/>
      <point x="50" y="799" type="curve" smooth="yes"/>
      <point x="50" y="469" type="line" smooth="yes"/>
      <point x="50" y="420"/>
      <point x="84" y="359"/>
      <point x="125" y="334" type="curve" smooth="yes"/>
      <point x="713" y="-36" type="line" smooth="yes"/>
      <point x="828" y="-108"/>
      <point x="956" y="-38"/>
    </contour>
  </outline>
</glyph>
<glyph name="V" format="1">
  <advance width="1020"/>
  <unicode hex="0056"/>
  <outline>
    <contour>
      <point x="511" y="25" type="curve" smooth="yes"/>
      <point x="936" y="572" type="line" smooth="yes"/>
      <point x="955" y="596"/>
      <point x="970" y="640"/>
      <point x="970" y="670" type="curve" smooth="yes"/>
      <point x="970" y="800" type="line" smooth="yes"/>
      <point x="970" y="886"/>
      <point x="896" y="960"/>
      <point x="810" y="960" type="curve" smooth="yes"/>
      <point x="724" y="960"/>
      <point x="650" y="886"/>
      <point x="650" y="800" type="curve" smooth="yes"/>
      <point x="650" y="725" type="line"/>
      <point x="458" y="478" type="line"/>
      <point x="365" y="840" type="line" smooth="yes"/>
      <point x="343" y="924"/>
      <point x="254" y="977"/>
      <point x="170" y="955" type="curve" smooth="yes"/>
      <point x="86" y="933"/>
      <point x="33" y="844"/>
      <point x="55" y="760" type="curve" smooth="yes"/>
      <point x="230" y="83" type="line" smooth="yes"/>
      <point x="266" y="-57"/>
      <point x="422" y="-89"/>
    </contour>
  </outline>
</glyph>
<glyph name="W" format="1">
  <advance width="1020"/>
  <unicode hex="0057"/>
  <outline>
    <contour>
      <point x="292" y="-37" type="curve" smooth="yes"/>
      <point x="892" y="323" type="line" smooth="yes"/>
      <point x="935" y="349"/>
      <point x="970" y="410"/>
      <point x="970" y="460" type="curve" smooth="yes"/>
      <point x="970" y="800" type="line" smooth="yes"/>
      <point x="970" y="886"/>
      <point x="896" y="960"/>
      <point x="810" y="960" type="curve" smooth="yes"/>
      <point x="724" y="960"/>
      <point x="650" y="886"/>
      <point x="650" y="800" type="curve" smooth="yes"/>
      <point x="650" y="551" type="line"/>
      <point x="370" y="383" type="line"/>
      <point x="370" y="800" type="line" smooth="yes"/>
      <point x="370" y="886"/>
      <point x="296" y="960"/>
      <point x="210" y="960" type="curve" smooth="yes"/>
      <point x="124" y="960"/>
      <point x="50" y="886"/>
      <point x="50" y="800" type="curve" smooth="yes"/>
      <point x="50" y="100" type="line"/>
      <point x="50" y="-35"/>
      <point x="177" y="-107"/>
    </contour>
  </outline>
</glyph>
<glyph name="Y" format="1">
  <advance width="929"/>
  <unicode hex="0059"/>
  <outline>
    <contour>
      <point x="293" y="-135" type="curve" smooth="yes"/>
      <point x="799" y="179" type="line" smooth="yes"/>
      <point x="893" y="237"/>
      <point x="905" y="354"/>
      <point x="826" y="430" type="curve" smooth="yes"/>
      <point x="320" y="914" type="line" smooth="yes"/>
      <point x="257" y="973"/>
      <point x="153" y="971"/>
      <point x="93" y="909" type="curve" smooth="yes"/>
      <point x="34" y="846"/>
      <point x="36" y="742"/>
      <point x="98" y="682" type="curve" smooth="yes"/>
      <point x="455" y="342" type="line"/>
      <point x="125" y="137" type="line" smooth="yes"/>
      <point x="51" y="91"/>
      <point x="27" y="-10"/>
      <point x="73" y="-83" type="curve" smooth="yes"/>
      <point x="119" y="-157"/>
      <point x="220" y="-181"/>
    </contour>
  </outline>
</glyph>
<glyph name="Z" format="1">
  <advance width="1020"/>
  <unicode hex="005A"/>
  <outline>
    <contour>
      <point x="968" y="-27" type="curve" smooth="yes"/>
      <point x="982" y="58"/>
      <point x="922" y="143"/>
      <point x="837" y="158" type="curve" smooth="yes"/>
      <point x="379" y="236" type="line"/>
      <point x="370" y="803" type="line" smooth="yes"/>
      <point x="369" y="889"/>
      <point x="294" y="961"/>
      <point x="207" y="960" type="curve" smooth="yes"/>
      <point x="121" y="959"/>
      <point x="49" y="884"/>
      <point x="50" y="797" type="curve" smooth="yes"/>
      <point x="62" y="98" type="line" smooth="yes"/>
      <point x="63" y="25"/>
      <point x="122" y="-45"/>
      <point x="195" y="-57" type="curve" smooth="yes"/>
      <point x="783" y="-158" type="line" smooth="yes"/>
      <point x="868" y="-172"/>
      <point x="953" y="-112"/>
    </contour>
  </outline>
</glyph>
<glyph name="bracketleft" format="1">
  <advance width="719"/>
  <unicode hex="005B"/>
  <outline>
    <contour>
      <point x="648" y="-79" type="curve" smooth="yes"/>
      <point x="691" y="-4"/>
      <point x="663" y="97"/>
      <point x="588" y="139" type="curve" smooth="yes"/>
      <point x="418" y="236" type="line"/>
      <point x="653" y="731" type="line" smooth="yes"/>
      <point x="691" y="809"/>
      <point x="656" y="907"/>
      <point x="578" y="944" type="curve" smooth="yes"/>
      <point x="500" y="982"/>
      <point x="402" y="947"/>
      <point x="365" y="869" type="curve" smooth="yes"/>
      <point x="65" y="239" type="line" smooth="yes"/>
      <point x="29" y="164"/>
      <point x="59" y="71"/>
      <point x="130" y="31" type="curve" smooth="yes"/>
      <point x="430" y="-139" type="line" smooth="yes"/>
      <point x="505" y="-182"/>
      <point x="606" y="-154"/>
    </contour>
  </outline>
</glyph>
<glyph name="bracketright" format="1">
  <advance width="719"/>
  <unicode hex="005D"/>
  <outline>
    <contour>
      <point x="288" y="-140" type="curve" smooth="yes"/>
      <point x="588" y="30" type="line" smooth="yes"/>
      <point x="659" y="70"/>
      <point x="689" y="163"/>
      <point x="653" y="238" type="curve" smooth="yes"/>
      <point x="353" y="868" type="line" smooth="yes"/>
      <point x="316" y="946"/>
      <point x="218" y="981"/>
      <point x="140" y="943" type="curve" smooth="yes"/>
      <point x="62" y="906"/>
      <point x="27" y="808"/>
      <point x="65" y="730" type="curve" smooth="yes"/>
      <point x="300" y="235" type="line"/>
      <point x="130" y="138" type="line" smooth="yes"/>
      <point x="55" y="96"/>
      <point x="27" y="-5"/>
      <point x="70" y="-80" type="curve" smooth="yes"/>
      <point x="112" y="-155"/>
      <point x="213" y="-183"/>
    </contour>
  </outline>
</glyph>
<glyph name="asciicircum" format="1">
  <advance width="1020"/>
  <unicode hex="005E"/>
  <outline>
    <contour>
      <point x="50" y="502" type="curve" smooth="yes"/>
      <point x="50" y="416"/>
      <point x="124" y="342"/>
      <point x="210" y="342" type="curve" smooth="yes"/>
      <point x="810" y="342" type="line" smooth="yes"/>
      <point x="896" y="342"/>
      <point x="970" y="416"/>
      <point x="970" y="502" type="curve" smooth="yes"/>
      <point x="970" y="588"/>
      <point x="896" y="662"/>
      <point x="810" y="662" type="curve" smooth="yes"/>
      <point x="210" y="662" type="line" smooth="yes"/>
      <point x="124" y="662"/>
      <point x="50" y="588"/>
    </contour>
  </outline>
</glyph>
<glyph name="grave" format="1">
  <advance width="718"/>
  <unicode hex="0060"/>
  <outline>
    <contour>
      <point x="642" y="839" type="curve" smooth="yes"/>
      <point x="690" y="911"/>
      <point x="670" y="1013"/>
      <point x="598" y="1061" type="curve" smooth="yes"/>
      <point x="298" y="1261" type="line" smooth="yes"/>
      <point x="226" y="1309"/>
      <point x="124" y="1289"/>
      <point x="76" y="1217" type="curve" smooth="yes"/>
      <point x="28" y="1145"/>
      <point x="48" y="1043"/>
      <point x="120" y="995" type="curve" smooth="yes"/>
      <point x="420" y="795" type="line" smooth="yes"/>
      <point x="492" y="747"/>
      <point x="594" y="767"/>
    </contour>
  </outline>
</glyph>
<glyph name="a" format="1">
  <advance width="420"/>
  <unicode hex="0061"/>
  <outline>
    <contour>
      <point x="210" y="506" type="curve" smooth="yes"/>
      <point x="124" y="506"/>
      <point x="50" y="432"/>
      <point x="50" y="346" type="curve" smooth="yes"/>
      <point x="50" y="-4" type="line" smooth="yes"/>
      <point x="50" y="-90"/>
      <point x="124" y="-164"/>
      <point x="210" y="-164" type="curve" smooth="yes"/>
      <point x="296" y="-164"/>
      <point x="370" y="-90"/>
      <point x="370" y="-4" type="curve" smooth="yes"/>
      <point x="370" y="346" type="line" smooth="yes"/>
      <point x="370" y="432"/>
      <point x="296" y="506"/>
    </contour>
  </outline>
</glyph>
<glyph name="b" format="1">
  <advance width="820"/>
  <unicode hex="0062"/>
  <outline>
    <contour>
      <point x="770" y="404" type="curve" smooth="yes"/>
      <point x="770" y="490"/>
      <point x="696" y="564"/>
      <point x="610" y="564" type="curve" smooth="yes"/>
      <point x="210" y="564" type="line" smooth="yes"/>
      <point x="124" y="564"/>
      <point x="50" y="490"/>
      <point x="50" y="404" type="curve" smooth="yes"/>
      <point x="50" y="318"/>
      <point x="124" y="244"/>
      <point x="210" y="244" type="curve" smooth="yes"/>
      <point x="610" y="244" type="line" smooth="yes"/>
      <point x="696" y="244"/>
      <point x="770" y="318"/>
    </contour>
  </outline>
</glyph>
<glyph name="e" format="1">
  <advance width="1022"/>
  <unicode hex="0065"/>
  <outline>
    <contour>
      <point x="728" y="-114" type="curve" smooth="yes"/>
      <point x="926" y="82" type="line" smooth="yes"/>
      <point x="987" y="143"/>
      <point x="987" y="247"/>
      <point x="927" y="309" type="curve" smooth="yes"/>
      <point x="866" y="370"/>
      <point x="762" y="370"/>
      <point x="700" y="310" type="curve" smooth="yes"/>
      <point x="591" y="202" type="line"/>
      <point x="524" y="244" type="line"/>
      <point x="894" y="465" type="line" smooth="yes"/>
      <point x="968" y="509"/>
      <point x="994" y="610"/>
      <point x="949" y="684" type="curve" smooth="yes"/>
      <point x="905" y="758"/>
      <point x="804" y="784"/>
      <point x="730" y="739" type="curve" smooth="yes"/>
      <point x="135" y="384" type="line" smooth="yes"/>
      <point x="23" y="317"/>
      <point x="22" y="179"/>
      <point x="132" y="111" type="curve" smooth="yes"/>
      <point x="528" y="-136" type="line" smooth="yes"/>
      <point x="557" y="-154"/>
      <point x="590" y="-161"/>
      <point x="622" y="-159" type="curve"/>
      <point x="661" y="-157"/>
      <point x="699" y="-142"/>
    </contour>
  </outline>
</glyph>
<glyph name="f" format="1">
  <advance width="1018"/>
  <unicode hex="0066"/>
  <outline>
    <contour>
      <point x="370" y="1" type="curve" smooth="yes"/>
      <point x="373" y="160" type="line"/>
      <point x="513" y="244" type="line"/>
      <point x="610" y="244" type="line" smooth="yes"/>
      <point x="694" y="244"/>
      <point x="765" y="313"/>
      <point x="770" y="397" type="curve"/>
      <point x="891" y="468" type="line" smooth="yes"/>
      <point x="965" y="513"/>
      <point x="991" y="614"/>
      <point x="947" y="688" type="curve" smooth="yes"/>
      <point x="902" y="762"/>
      <point x="801" y="788"/>
      <point x="727" y="744" type="curve" smooth="yes"/>
      <point x="425" y="564" type="line"/>
      <point x="410" y="564" type="line" smooth="yes"/>
      <point x="346" y="564"/>
      <point x="289" y="524"/>
      <point x="264" y="468" type="curve"/>
      <point x="132" y="390" type="line" smooth="yes"/>
      <point x="90" y="365"/>
      <point x="55" y="304"/>
      <point x="54" y="255" type="curve" smooth="yes"/>
      <point x="50" y="7" type="line" smooth="yes"/>
      <point x="49" y="-80"/>
      <point x="121" y="-155"/>
      <point x="207" y="-156" type="curve" smooth="yes"/>
      <point x="294" y="-157"/>
      <point x="369" y="-85"/>
    </contour>
  </outline>
</glyph>
<glyph name="g" format="1">
  <advance width="1023"/>
  <unicode hex="0067"/>
  <outline>
    <contour>
      <point x="296" y="107" type="curve" smooth="yes"/>
      <point x="896" y="467" type="line" smooth="yes"/>
      <point x="970" y="511"/>
      <point x="996" y="612"/>
      <point x="951" y="686" type="curve" smooth="yes"/>
      <point x="907" y="760"/>
      <point x="806" y="786"/>
      <point x="732" y="741" type="curve" smooth="yes"/>
      <point x="568" y="643" type="line"/>
      <point x="557" y="685"/>
      <point x="531" y="722"/>
      <point x="492" y="744" type="curve" smooth="yes"/>
      <point x="416" y="786"/>
      <point x="316" y="757"/>
      <point x="274" y="682" type="curve" smooth="yes"/>
      <point x="74" y="322" type="line" smooth="yes"/>
      <point x="-11" y="168"/>
      <point x="146" y="16"/>
    </contour>
  </outline>
</glyph>
<glyph name="h" format="1">
  <advance width="1020"/>
  <unicode hex="0068"/>
  <outline>
    <contour>
      <point x="810" y="-164" type="curve" smooth="yes"/>
      <point x="896" y="-164"/>
      <point x="970" y="-90"/>
      <point x="970" y="-4" type="curve" smooth="yes"/>
      <point x="970" y="696" type="line" smooth="yes"/>
      <point x="970" y="835"/>
      <point x="837" y="906"/>
      <point x="721" y="829" type="curve" smooth="yes"/>
      <point x="379" y="601" type="line"/>
      <point x="370" y="803" type="line" smooth="yes"/>
      <point x="366" y="889"/>
      <point x="289" y="960"/>
      <point x="203" y="956" type="curve" smooth="yes"/>
      <point x="117" y="952"/>
      <point x="46" y="875"/>
      <point x="50" y="789" type="curve" smooth="yes"/>
      <point x="72" y="304" type="line" smooth="yes"/>
      <point x="78" y="168"/>
      <point x="208" y="103"/>
      <point x="320" y="178" type="curve" smooth="yes"/>
      <point x="650" y="397" type="line"/>
      <point x="650" y="-4" type="line" smooth="yes"/>
      <point x="650" y="-90"/>
      <point x="724" y="-164"/>
    </contour>
  </outline>
</glyph>
<glyph name="j" format="1">
  <advance width="1019"/>
  <unicode hex="006A"/>
  <outline>
    <contour>
      <point x="288" y="-140" type="curve" smooth="yes"/>
      <point x="588" y="31" type="line" smooth="yes"/>
      <point x="612" y="45"/>
      <point x="641" y="76"/>
      <point x="653" y="101" type="curve" smooth="yes"/>
      <point x="953" y="730" type="line" smooth="yes"/>
      <point x="991" y="808"/>
      <point x="956" y="906"/>
      <point x="878" y="943" type="curve" smooth="yes"/>
      <point x="800" y="981"/>
      <point x="702" y="946"/>
      <point x="665" y="868" type="curve" smooth="yes"/>
      <point x="386" y="284" type="line"/>
      <point x="130" y="138" type="line" smooth="yes"/>
      <point x="55" y="95"/>
      <point x="27" y="-5"/>
      <point x="70" y="-80" type="curve" smooth="yes"/>
      <point x="113" y="-155"/>
      <point x="213" y="-183"/>
    </contour>
  </outline>
</glyph>
<glyph name="k" format="1">
  <advance width="1019"/>
  <unicode hex="006B"/>
  <outline>
    <contour>
      <point x="947" y="-78" type="curve" smooth="yes"/>
      <point x="992" y="-4"/>
      <point x="966" y="97"/>
      <point x="892" y="141" type="curve" smooth="yes"/>
      <point x="687" y="265" type="line"/>
      <point x="715" y="280"/>
      <point x="738" y="303"/>
      <point x="753" y="332" type="curve" smooth="yes"/>
      <point x="953" y="732" type="line" smooth="yes"/>
      <point x="992" y="810"/>
      <point x="959" y="908"/>
      <point x="882" y="947" type="curve" smooth="yes"/>
      <point x="804" y="986"/>
      <point x="706" y="953"/>
      <point x="667" y="876" type="curve" smooth="yes"/>
      <point x="467" y="476" type="line" smooth="yes"/>
      <point x="456" y="454"/>
      <point x="451" y="431"/>
      <point x="451" y="406" type="curve"/>
      <point x="370" y="455" type="line"/>
      <point x="370" y="804" type="line" smooth="yes"/>
      <point x="370" y="890"/>
      <point x="296" y="964"/>
      <point x="210" y="964" type="curve" smooth="yes"/>
      <point x="124" y="964"/>
      <point x="50" y="890"/>
      <point x="50" y="804" type="curve" smooth="yes"/>
      <point x="50" y="364" type="line" smooth="yes"/>
      <point x="50" y="314"/>
      <point x="85" y="253"/>
      <point x="128" y="227" type="curve" smooth="yes"/>
      <point x="728" y="-133" type="line" smooth="yes"/>
      <point x="802" y="-178"/>
      <point x="903" y="-152"/>
    </contour>
  </outline>
</glyph>
<glyph name="o" format="1">
  <advance width="1024"/>
  <unicode hex="006F"/>
  <outline>
    <contour>
      <point x="773" y="-45" type="curve" smooth="yes"/>
      <point x="966" y="622" type="line" smooth="yes"/>
      <point x="1010" y="774"/>
      <point x="865" y="885"/>
      <point x="730" y="804" type="curve" smooth="yes"/>
      <point x="133" y="446" type="line" smooth="yes"/>
      <point x="30" y="385"/>
      <point x="22" y="258"/>
      <point x="116" y="183" type="curve" smooth="yes"/>
      <point x="510" y="-127" type="line" smooth="yes"/>
      <point x="537" y="-148"/>
      <point x="569" y="-159"/>
      <point x="601" y="-160" type="curve"/>
      <point x="676" y="-168"/>
      <point x="751" y="-120"/>
    </contour>
    <contour>
      <point x="529" y="265" type="line"/>
      <point x="497" y="291" type="line"/>
      <point x="545" y="320" type="line"/>
    </contour>
  </outline>
</glyph>
<glyph name="s" format="1">
  <advance width="1019"/>
  <unicode hex="0073"/>
  <outline>
    <contour>
      <point x="597" y="-77" type="curve" smooth="yes"/>
      <point x="948" y="523" type="line" smooth="yes"/>
      <point x="992" y="598"/>
      <point x="965" y="699"/>
      <point x="891" y="742" type="curve" smooth="yes"/>
      <point x="816" y="786"/>
      <point x="715" y="759"/>
      <point x="672" y="685" type="curve" smooth="yes"/>
      <point x="415" y="245" type="line"/>
      <point x="309" y="329" type="line" smooth="yes"/>
      <point x="241" y="383"/>
      <point x="138" y="371"/>
      <point x="84" y="304" type="curve" smooth="yes"/>
      <point x="30" y="236"/>
      <point x="42" y="133"/>
      <point x="109" y="79" type="curve" smooth="yes"/>
      <point x="359" y="-121" type="line" smooth="yes"/>
      <point x="438" y="-184"/>
      <point x="546" y="-164"/>
    </contour>
  </outline>
</glyph>
<glyph name="x" format="1">
  <advance width="1019"/>
  <unicode hex="0078"/>
  <outline>
    <contour>
      <point x="368" y="-25" type="curve" smooth="yes"/>
      <point x="392" y="132" type="line"/>
      <point x="709" y="-124" type="line" smooth="yes"/>
      <point x="777" y="-179"/>
      <point x="880" y="-168"/>
      <point x="934" y="-101" type="curve" smooth="yes"/>
      <point x="989" y="-33"/>
      <point x="978" y="70"/>
      <point x="911" y="124" type="curve" smooth="yes"/>
      <point x="568" y="401" type="line"/>
      <point x="910" y="675" type="line" smooth="yes"/>
      <point x="978" y="729"/>
      <point x="989" y="833"/>
      <point x="935" y="900" type="curve" smooth="yes"/>
      <point x="881" y="968"/>
      <point x="777" y="979"/>
      <point x="710" y="925" type="curve" smooth="yes"/>
      <point x="393" y="671" type="line"/>
      <point x="368" y="826" type="line" smooth="yes"/>
      <point x="354" y="911"/>
      <point x="269" y="972"/>
      <point x="184" y="958" type="curve" smooth="yes"/>
      <point x="99" y="944"/>
      <point x="38" y="859"/>
      <point x="52" y="774" type="curve" smooth="yes"/>
      <point x="112" y="410" type="line" smooth="yes"/>
      <point x="113" y="406" type="line"/>
      <point x="111" y="400"/>
      <point x="109" y="394"/>
      <point x="108" y="388" type="curve" smooth="yes"/>
      <point x="52" y="25" type="line" smooth="yes"/>
      <point x="39" y="-61"/>
      <point x="100" y="-145"/>
      <point x="185" y="-158" type="curve" smooth="yes"/>
      <point x="271" y="-171"/>
      <point x="355" y="-110"/>
    </contour>
  </outline>
</glyph>
<glyph name="braceleft" format="1">
  <advance width="718"/>
  <unicode hex="007B"/>
  <outline>
    <contour>
      <point x="648" y="-82" type="curve" smooth="yes"/>
      <point x="691" y="-7"/>
      <point x="664" y="94"/>
      <point x="589" y="137" type="curve" smooth="yes"/>
      <point x="418" y="235" type="line"/>
      <point x="653" y="729" type="line" smooth="yes"/>
      <point x="691" y="807"/>
      <point x="656" y="905"/>
      <point x="578" y="942" type="curve" smooth="yes"/>
      <point x="500" y="980"/>
      <point x="402" y="945"/>
      <point x="365" y="867" type="curve" smooth="yes"/>
      <point x="65" y="239" type="line" smooth="yes"/>
      <point x="30" y="165"/>
      <point x="59" y="72"/>
      <point x="130" y="31" type="curve" smooth="yes"/>
      <point x="429" y="-141" type="line" smooth="yes"/>
      <point x="504" y="-184"/>
      <point x="605" y="-157"/>
    </contour>
  </outline>
</glyph>
<glyph name="braceright" format="1">
  <advance width="718"/>
  <unicode hex="007D"/>
  <outline>
    <contour>
      <point x="289" y="-140" type="curve" smooth="yes"/>
      <point x="588" y="32" type="line" smooth="yes"/>
      <point x="659" y="73"/>
      <point x="688" y="166"/>
      <point x="653" y="240" type="curve" smooth="yes"/>
      <point x="353" y="868" type="line" smooth="yes"/>
      <point x="316" y="946"/>
      <point x="218" y="981"/>
      <point x="140" y="943" type="curve" smooth="yes"/>
      <point x="62" y="906"/>
      <point x="27" y="808"/>
      <point x="65" y="730" type="curve" smooth="yes"/>
      <point x="300" y="236" type="line"/>
      <point x="129" y="138" type="line" smooth="yes"/>
      <point x="54" y="95"/>
      <point x="27" y="-6"/>
      <point x="70" y="-81" type="curve" smooth="yes"/>
      <point x="113" y="-156"/>
      <point x="214" y="-183"/>
    </contour>
  </outline>
</glyph>
<glyph name="asciitilde" format="1">
  <advance width="1019"/>
  <unicode hex="007E"/>
  <outline>
    <contour>
      <point x="58" y="52" type="curve" smooth="yes"/>
      <point x="86" y="-30"/>
      <point x="179" y="-76"/>
      <point x="261" y="-49" type="curve" smooth="yes"/>
      <point x="861" y="151" type="line" smooth="yes"/>
      <point x="943" y="179"/>
      <point x="989" y="272"/>
      <point x="962" y="354" type="curve" smooth="yes"/>
      <point x="934" y="436"/>
      <point x="841" y="482"/>
      <point x="759" y="455" type="curve" smooth="yes"/>
      <point x="159" y="255" type="line" smooth="yes"/>
      <point x="77" y="227"/>
      <point x="31" y="134"/>
    </contour>
  </outline>
</glyph>
<glyph name="cent" format="1">
  <advance width="520"/>
  <unicode hex="00A2"/>
  <outline>
    <contour>
      <point x="210" y="-260" type="curve" smooth="yes"/>
      <point x="279" y="-260"/>
      <point x="339" y="-214"/>
      <point x="361" y="-151" type="curve"/>
      <point x="424" y="-129"/>
      <point x="470" y="-69"/>
      <point x="470" y="0" type="curve" smooth="yes"/>
      <point x="470" y="400" type="line" smooth="yes"/>
      <point x="470" y="469"/>
      <point x="424" y="529"/>
      <point x="361" y="551" type="curve"/>
      <point x="339" y="614"/>
      <point x="279" y="660"/>
      <point x="210" y="660" type="curve" smooth="yes"/>
      <point x="124" y="660"/>
      <point x="50" y="586"/>
      <point x="50" y="500" type="curve" smooth="yes"/>
      <point x="50" y="400" type="line" smooth="yes"/>
      <point x="50" y="335"/>
      <point x="92" y="277"/>
      <point x="150" y="252" type="curve"/>
      <point x="150" y="148" type="line"/>
      <point x="92" y="123"/>
      <point x="50" y="65"/>
      <point x="50" y="0" type="curve" smooth="yes"/>
      <point x="50" y="-100" type="line" smooth="yes"/>
      <point x="50" y="-186"/>
      <point x="124" y="-260"/>
    </contour>
  </outline>
</glyph>
<glyph name="sterling" format="1">
  <advance width="770"/>
  <unicode hex="00A3"/>
  <outline>
    <contour>
      <point x="605" y="-153" type="curve" smooth="yes"/>
      <point x="688" y="-128"/>
      <point x="738" y="-37"/>
      <point x="714" y="46" type="curve" smooth="yes"/>
      <point x="637" y="306" type="line"/>
      <point x="658" y="333"/>
      <point x="670" y="366"/>
      <point x="670" y="401" type="curve" smooth="yes"/>
      <point x="670" y="468"/>
      <point x="626" y="527"/>
      <point x="566" y="550" type="curve"/>
      <point x="551" y="600" type="line"/>
      <point x="651" y="670" type="line" smooth="yes"/>
      <point x="722" y="719"/>
      <point x="741" y="821"/>
      <point x="691" y="892" type="curve" smooth="yes"/>
      <point x="642" y="963"/>
      <point x="540" y="982"/>
      <point x="469" y="932" type="curve" smooth="yes"/>
      <point x="274" y="797" type="line" smooth="yes"/>
      <point x="222" y="761"/>
      <point x="194" y="682"/>
      <point x="212" y="621" type="curve" smooth="yes"/>
      <point x="229" y="561" type="line"/>
      <point x="210" y="561" type="line" smooth="yes"/>
      <point x="124" y="561"/>
      <point x="50" y="487"/>
      <point x="50" y="401" type="curve" smooth="yes"/>
      <point x="50" y="315"/>
      <point x="124" y="241"/>
      <point x="210" y="241" type="curve" smooth="yes"/>
      <point x="323" y="241" type="line"/>
      <point x="406" y="-44" type="line" smooth="yes"/>
      <point x="431" y="-127"/>
      <point x="522" y="-177"/>
    </contour>
  </outline>
</glyph>
<glyph name="section" format="1">
  <advance width="1019"/>
  <unicode hex="00A7"/>
  <outline>
    <contour>
      <point x="906" y="230" type="curve" smooth="yes"/>
      <point x="895" y="240" type="line"/>
      <point x="892" y="279"/>
      <point x="875" y="318"/>
      <point x="844" y="346" type="curve" smooth="yes"/>
      <point x="724" y="454" type="line"/>
      <point x="785" y="445" type="line" smooth="yes"/>
      <point x="871" y="432"/>
      <point x="955" y="493"/>
      <point x="968" y="578" type="curve" smooth="yes"/>
      <point x="981" y="664"/>
      <point x="920" y="748"/>
      <point x="835" y="761" type="curve" smooth="yes"/>
      <point x="246" y="852" type="line" smooth="yes"/>
      <point x="77" y="879"/>
      <point x="-13" y="691"/>
      <point x="114" y="576" type="curve" smooth="yes"/>
      <point x="125" y="566" type="line"/>
      <point x="128" y="527"/>
      <point x="145" y="488"/>
      <point x="176" y="460" type="curve" smooth="yes"/>
      <point x="296" y="352" type="line"/>
      <point x="235" y="361" type="line" smooth="yes"/>
      <point x="149" y="374"/>
      <point x="65" y="313"/>
      <point x="52" y="228" type="curve" smooth="yes"/>
      <point x="39" y="142"/>
      <point x="100" y="58"/>
      <point x="185" y="45" type="curve" smooth="yes"/>
      <point x="774" y="-46" type="line" smooth="yes"/>
      <point x="943" y="-73"/>
      <point x="1033" y="115"/>
    </contour>
  </outline>
</glyph>
<glyph name="paragraph" format="1">
  <advance width="620"/>
  <unicode hex="00B6"/>
  <outline>
    <contour>
      <point x="410" y="-160" type="curve" smooth="yes"/>
      <point x="496" y="-160"/>
      <point x="570" y="-86"/>
      <point x="570" y="0" type="curve" smooth="yes"/>
      <point x="570" y="30" type="line" smooth="yes"/>
      <point x="570" y="43"/>
      <point x="567" y="63"/>
      <point x="563" y="76" type="curve" smooth="yes"/>
      <point x="363" y="746" type="line" smooth="yes"/>
      <point x="308" y="931"/>
      <point x="50" y="893"/>
      <point x="50" y="700" type="curve" smooth="yes"/>
      <point x="50" y="0" type="line" smooth="yes"/>
      <point x="50" y="-86"/>
      <point x="124" y="-160"/>
      <point x="210" y="-160" type="curve" smooth="yes"/>
      <point x="247" y="-160"/>
      <point x="282" y="-146"/>
      <point x="310" y="-124" type="curve"/>
      <point x="338" y="-146"/>
      <point x="373" y="-160"/>
    </contour>
  </outline>
</glyph>
<glyph name="Aacute" format="1">
  <advance width="719"/>
  <unicode hex="00C1"/>
  <outline>
    <contour>
      <point x="76" y="839" type="curve" smooth="yes"/>
      <point x="124" y="767"/>
      <point x="226" y="747"/>
      <point x="298" y="795" type="curve" smooth="yes"/>
      <point x="598" y="995" type="line" smooth="yes"/>
      <point x="670" y="1043"/>
      <point x="690" y="1145"/>
      <point x="642" y="1217" type="curve" smooth="yes"/>
      <point x="594" y="1289"/>
      <point x="492" y="1309"/>
      <point x="420" y="1261" type="curve" smooth="yes"/>
      <point x="120" y="1061" type="line" smooth="yes"/>
      <point x="48" y="1013"/>
      <point x="28" y="911"/>
    </contour>
    <contour>
      <point x="509" y="506" type="curve" smooth="yes"/>
      <point x="423" y="506"/>
      <point x="349" y="432"/>
      <point x="349" y="346" type="curve" smooth="yes"/>
      <point x="349" y="-4" type="line" smooth="yes"/>
      <point x="349" y="-90"/>
      <point x="423" y="-164"/>
      <point x="509" y="-164" type="curve" smooth="yes"/>
      <point x="595" y="-164"/>
      <point x="669" y="-90"/>
      <point x="669" y="-4" type="curve" smooth="yes"/>
      <point x="669" y="346" type="line" smooth="yes"/>
      <point x="669" y="432"/>
      <point x="595" y="506"/>
    </contour>
  </outline>
</glyph>
<glyph name="Acircumflex" format="1">
  <advance width="1020"/>
  <unicode hex="00C2"/>
  <outline>
    <contour>
      <point x="50" y="928" type="curve" smooth="yes"/>
      <point x="50" y="842"/>
      <point x="124" y="768"/>
      <point x="210" y="768" type="curve" smooth="yes"/>
      <point x="810" y="768" type="line" smooth="yes"/>
      <point x="896" y="768"/>
      <point x="970" y="842"/>
      <point x="970" y="928" type="curve" smooth="yes"/>
      <point x="970" y="1014"/>
      <point x="896" y="1088"/>
      <point x="810" y="1088" type="curve" smooth="yes"/>
      <point x="210" y="1088" type="line" smooth="yes"/>
      <point x="124" y="1088"/>
      <point x="50" y="1014"/>
    </contour>
    <contour>
      <point x="810" y="506" type="curve" smooth="yes"/>
      <point x="724" y="506"/>
      <point x="650" y="432"/>
      <point x="650" y="346" type="curve" smooth="yes"/>
      <point x="650" y="-4" type="line" smooth="yes"/>
      <point x="650" y="-90"/>
      <point x="724" y="-164"/>
      <point x="810" y="-164" type="curve" smooth="yes"/>
      <point x="896" y="-164"/>
      <point x="970" y="-90"/>
      <point x="970" y="-4" type="curve" smooth="yes"/>
      <point x="970" y="346" type="line" smooth="yes"/>
      <point x="970" y="432"/>
      <point x="896" y="506"/>
    </contour>
  </outline>
</glyph>
<glyph name="Atilde" format="1">
  <advance width="1020"/>
  <unicode hex="00C3"/>
  <outline>
    <contour>
      <point x="58" y="877" type="curve" smooth="yes"/>
      <point x="86" y="795"/>
      <point x="179" y="749"/>
      <point x="261" y="776" type="curve" smooth="yes"/>
      <point x="861" y="976" type="line" smooth="yes"/>
      <point x="943" y="1004"/>
      <point x="989" y="1097"/>
      <point x="962" y="1179" type="curve" smooth="yes"/>
      <point x="934" y="1261"/>
      <point x="841" y="1307"/>
      <point x="759" y="1280" type="curve" smooth="yes"/>
      <point x="159" y="1080" type="line" smooth="yes"/>
      <point x="77" y="1052"/>
      <point x="31" y="959"/>
    </contour>
    <contour>
      <point x="810" y="506" type="curve" smooth="yes"/>
      <point x="724" y="506"/>
      <point x="650" y="432"/>
      <point x="650" y="346" type="curve" smooth="yes"/>
      <point x="650" y="-4" type="line" smooth="yes"/>
      <point x="650" y="-90"/>
      <point x="724" y="-164"/>
      <point x="810" y="-164" type="curve" smooth="yes"/>
      <point x="896" y="-164"/>
      <point x="970" y="-90"/>
      <point x="970" y="-4" type="curve" smooth="yes"/>
      <point x="970" y="346" type="line" smooth="yes"/>
      <point x="970" y="432"/>
      <point x="896" y="506"/>
    </contour>
  </outline>
</glyph>
<glyph name="Eacute" format="1">
  <advance width="1022"/>
  <unicode hex="00C9"/>
  <outline>
    <contour>
      <point x="375" y="839" type="curve" smooth="yes"/>
      <point x="423" y="767"/>
      <point x="525" y="747"/>
      <point x="597" y="795" type="curve" smooth="yes"/>
      <point x="897" y="995" type="line" smooth="yes"/>
      <point x="969" y="1043"/>
      <point x="989" y="1145"/>
      <point x="941" y="1217" type="curve" smooth="yes"/>
      <point x="893" y="1289"/>
      <point x="791" y="1309"/>
      <point x="719" y="1261" type="curve" smooth="yes"/>
      <point x="419" y="1061" type="line" smooth="yes"/>
      <point x="347" y="1013"/>
      <point x="327" y="911"/>
    </contour>
    <contour>
      <point x="728" y="-114" type="curve" smooth="yes"/>
      <point x="926" y="82" type="line" smooth="yes"/>
      <point x="987" y="143"/>
      <point x="987" y="247"/>
      <point x="927" y="309" type="curve" smooth="yes"/>
      <point x="866" y="370"/>
      <point x="762" y="370"/>
      <point x="700" y="310" type="curve" smooth="yes"/>
      <point x="591" y="202" type="line"/>
      <point x="524" y="244" type="line"/>
      <point x="894" y="465" type="line" smooth="yes"/>
      <point x="968" y="509"/>
      <point x="994" y="610"/>
      <point x="949" y="684" type="curve" smooth="yes"/>
      <point x="905" y="758"/>
      <point x="804" y="784"/>
      <point x="730" y="739" type="curve" smooth="yes"/>
      <point x="135" y="384" type="line" smooth="yes"/>
      <point x="23" y="317"/>
      <point x="22" y="179"/>
      <point x="132" y="111" type="curve" smooth="yes"/>
      <point x="528" y="-136" type="line" smooth="yes"/>
      <point x="557" y="-154"/>
      <point x="590" y="-161"/>
      <point x="622" y="-159" type="curve"/>
      <point x="661" y="-157"/>
      <point x="699" y="-142"/>
    </contour>
  </outline>
</glyph>
<glyph name="Iacute" format="1">
  <advance width="1023"/>
  <unicode hex="00CD"/>
  <outline>
    <contour>
      <point x="353" y="-71" type="curve" smooth="yes"/>
      <point x="632" y="506" type="line"/>
      <point x="891" y="662" type="line" smooth="yes"/>
      <point x="965" y="706"/>
      <point x="991" y="807"/>
      <point x="946" y="881" type="curve" smooth="yes"/>
      <point x="923" y="920"/>
      <point x="884" y="946"/>
      <point x="841" y="955" type="curve"/>
      <point x="902" y="995" type="line" smooth="yes"/>
      <point x="974" y="1043"/>
      <point x="994" y="1145"/>
      <point x="946" y="1217" type="curve" smooth="yes"/>
      <point x="898" y="1289"/>
      <point x="796" y="1309"/>
      <point x="724" y="1261" type="curve" smooth="yes"/>
      <point x="424" y="1061" type="line" smooth="yes"/>
      <point x="352" y="1013"/>
      <point x="332" y="911"/>
      <point x="380" y="839" type="curve" smooth="yes"/>
      <point x="400" y="809"/>
      <point x="430" y="788"/>
      <point x="462" y="777" type="curve"/>
      <point x="426" y="756" type="line" smooth="yes"/>
      <point x="404" y="742"/>
      <point x="376" y="712"/>
      <point x="365" y="688" type="curve" smooth="yes"/>
      <point x="65" y="69" type="line" smooth="yes"/>
      <point x="27" y="-9"/>
      <point x="62" y="-107"/>
      <point x="139" y="-145" type="curve" smooth="yes"/>
      <point x="217" y="-183"/>
      <point x="315" y="-148"/>
    </contour>
  </outline>
</glyph>
<glyph name="Oslash" format="1">
  <advance width="1018"/>
  <unicode hex="00D8"/>
  <outline>
    <contour>
      <point x="337" y="-95" type="curve" smooth="yes"/>
      <point x="444" y="47" type="line"/>
      <point x="466" y="-14"/>
      <point x="526" y="-59"/>
      <point x="594" y="-59" type="curve" smooth="yes"/>
      <point x="604" y="-59" type="line" smooth="yes"/>
      <point x="690" y="-59"/>
      <point x="764" y="15"/>
      <point x="764" y="101" type="curve" smooth="yes"/>
      <point x="764" y="187"/>
      <point x="690" y="261"/>
      <point x="604" y="261" type="curve" smooth="yes"/>
      <point x="937" y="705" type="line" smooth="yes"/>
      <point x="989" y="774"/>
      <point x="974" y="877"/>
      <point x="905" y="929" type="curve" smooth="yes"/>
      <point x="836" y="981"/>
      <point x="733" y="966"/>
      <point x="681" y="897" type="curve" smooth="yes"/>
      <point x="81" y="97" type="line" smooth="yes"/>
      <point x="29" y="28"/>
      <point x="44" y="-75"/>
      <point x="113" y="-127" type="curve" smooth="yes"/>
      <point x="182" y="-179"/>
      <point x="285" y="-164"/>
    </contour>
  </outline>
</glyph>
<glyph name="Ucircumflex" format="1">
  <advance width="1021"/>
  <unicode hex="00DB"/>
  <outline>
    <contour>
      <point x="958" y="97" type="curve" smooth="yes"/>
      <point x="969" y="797" type="line" smooth="yes"/>
      <point x="969" y="819"/>
      <point x="965" y="841"/>
      <point x="956" y="861" type="curve"/>
      <point x="965" y="882"/>
      <point x="971" y="904"/>
      <point x="971" y="928" type="curve" smooth="yes"/>
      <point x="971" y="1014"/>
      <point x="897" y="1088"/>
      <point x="811" y="1088" type="curve" smooth="yes"/>
      <point x="211" y="1088" type="line" smooth="yes"/>
      <point x="125" y="1088"/>
      <point x="51" y="1014"/>
      <point x="51" y="928" type="curve" smooth="yes"/>
      <point x="51" y="906"/>
      <point x="56" y="884"/>
      <point x="65" y="865" type="curve"/>
      <point x="55" y="844"/>
      <point x="50" y="822"/>
      <point x="50" y="799" type="curve" smooth="yes"/>
      <point x="50" y="469" type="line" smooth="yes"/>
      <point x="50" y="420"/>
      <point x="84" y="359"/>
      <point x="125" y="334" type="curve" smooth="yes"/>
      <point x="713" y="-36" type="line" smooth="yes"/>
      <point x="828" y="-108"/>
      <point x="956" y="-38"/>
    </contour>
    <contour>
      <point x="649" y="768" type="line"/>
      <point x="643" y="386" type="line"/>
      <point x="370" y="557" type="line"/>
      <point x="370" y="768" type="line"/>
    </contour>
  </outline>
</glyph>
<glyph name="agrave" format="1">
  <advance width="1019"/>
  <unicode hex="00E0"/>
  <outline>
    <contour>
      <point x="642" y="839" type="curve" smooth="yes"/>
      <point x="690" y="911"/>
      <point x="670" y="1013"/>
      <point x="598" y="1061" type="curve" smooth="yes"/>
      <point x="298" y="1261" type="line" smooth="yes"/>
      <point x="226" y="1309"/>
      <point x="124" y="1289"/>
      <point x="76" y="1217" type="curve" smooth="yes"/>
      <point x="28" y="1145"/>
      <point x="48" y="1043"/>
      <point x="120" y="995" type="curve" smooth="yes"/>
      <point x="420" y="795" type="line" smooth="yes"/>
      <point x="492" y="747"/>
      <point x="594" y="767"/>
    </contour>
    <contour>
      <point x="809" y="506" type="curve" smooth="yes"/>
      <point x="723" y="506"/>
      <point x="649" y="432"/>
      <point x="649" y="346" type="curve" smooth="yes"/>
      <point x="649" y="-4" type="line" smooth="yes"/>
      <point x="649" y="-90"/>
      <point x="723" y="-164"/>
      <point x="809" y="-164" type="curve" smooth="yes"/>
      <point x="895" y="-164"/>
      <point x="969" y="-90"/>
      <point x="969" y="-4" type="curve" smooth="yes"/>
      <point x="969" y="346" type="line" smooth="yes"/>
      <point x="969" y="432"/>
      <point x="895" y="506"/>
    </contour>
  </outline>
</glyph>
<glyph name="ccedilla" format="1">
  <advance width="1029"/>
  <unicode hex="00E7"/>
  <outline>
    <contour>
      <point x="979" y="190" type="curve" smooth="yes"/>
      <point x="984" y="276"/>
      <point x="916" y="355"/>
      <point x="830" y="361" type="curve" smooth="yes"/>
      <point x="739" y="367" type="line"/>
      <point x="901" y="464" type="line" smooth="yes"/>
      <point x="975" y="508"/>
      <point x="1001" y="609"/>
      <point x="956" y="683" type="curve" smooth="yes"/>
      <point x="912" y="757"/>
      <point x="811" y="783"/>
      <point x="737" y="738" type="curve" smooth="yes"/>
      <point x="137" y="379" type="line" smooth="yes"/>
      <point x="-9" y="292"/>
      <point x="39" y="93"/>
      <point x="208" y="82" type="curve" smooth="yes"/>
      <point x="808" y="41" type="line" smooth="yes"/>
      <point x="894" y="36"/>
      <point x="973" y="104"/>
    </contour>
  </outline>
</glyph>
<glyph name="egrave" format="1">
  <advance width="1023"/>
  <unicode hex="00E8"/>
  <outline>
    <contour>
      <point x="642" y="839" type="curve" smooth="yes"/>
      <point x="690" y="911"/>
      <point x="670" y="1013"/>
      <point x="598" y="1061" type="curve" smooth="yes"/>
      <point x="298" y="1261" type="line" smooth="yes"/>
      <point x="226" y="1309"/>
      <point x="124" y="1289"/>
      <point x="76" y="1217" type="curve" smooth="yes"/>
      <point x="28" y="1145"/>
      <point x="48" y="1043"/>
      <point x="120" y="995" type="curve" smooth="yes"/>
      <point x="420" y="795" type="line" smooth="yes"/>
      <point x="492" y="747"/>
      <point x="594" y="767"/>
    </contour>
    <contour>
      <point x="729" y="-114" type="curve" smooth="yes"/>
      <point x="927" y="82" type="line" smooth="yes"/>
      <point x="988" y="143"/>
      <point x="988" y="247"/>
      <point x="928" y="309" type="curve" smooth="yes"/>
      <point x="867" y="370"/>
      <point x="763" y="370"/>
      <point x="701" y="310" type="curve" smooth="yes"/>
      <point x="592" y="202" type="line"/>
      <point x="525" y="244" type="line"/>
      <point x="895" y="465" type="line" smooth="yes"/>
      <point x="969" y="509"/>
      <point x="995" y="610"/>
      <point x="950" y="684" type="curve" smooth="yes"/>
      <point x="906" y="758"/>
      <point x="805" y="784"/>
      <point x="731" y="739" type="curve" smooth="yes"/>
      <point x="136" y="384" type="line" smooth="yes"/>
      <point x="24" y="317"/>
      <point x="23" y="179"/>
      <point x="133" y="111" type="curve" smooth="yes"/>
      <point x="529" y="-136" type="line" smooth="yes"/>
      <point x="558" y="-154"/>
      <point x="591" y="-161"/>
      <point x="623" y="-159" type="curve"/>
      <point x="662" y="-157"/>
      <point x="700" y="-142"/>
    </contour>
  </outline>
</glyph>
<glyph name="ecircumflex" format="1">
  <advance width="1024"/>
  <unicode hex="00EA"/>
  <outline>
    <contour>
      <point x="50" y="928" type="curve" smooth="yes"/>
      <point x="50" y="842"/>
      <point x="124" y="768"/>
      <point x="210" y="768" type="curve" smooth="yes"/>
      <point x="810" y="768" type="line" smooth="yes"/>
      <point x="896" y="768"/>
      <point x="970" y="842"/>
      <point x="970" y="928" type="curve" smooth="yes"/>
      <point x="970" y="1014"/>
      <point x="896" y="1088"/>
      <point x="810" y="1088" type="curve" smooth="yes"/>
      <point x="210" y="1088" type="line" smooth="yes"/>
      <point x="124" y="1088"/>
      <point x="50" y="1014"/>
    </contour>
    <contour>
      <point x="730" y="-114" type="curve" smooth="yes"/>
      <point x="928" y="82" type="line" smooth="yes"/>
      <point x="989" y="143"/>
      <point x="989" y="247"/>
      <point x="929" y="309" type="curve" smooth="yes"/>
      <point x="868" y="370"/>
      <point x="764" y="370"/>
      <point x="702" y="310" type="curve" smooth="yes"/>
      <point x="593" y="202" type="line"/>
      <point x="526" y="244" type="line"/>
      <point x="896" y="465" type="line" smooth="yes"/>
      <point x="970" y="509"/>
      <point x="996" y="610"/>
      <point x="951" y="684" type="curve" smooth="yes"/>
      <point x="907" y="758"/>
      <point x="806" y="784"/>
      <point x="732" y="739" type="curve" smooth="yes"/>
      <point x="137" y="384" type="line" smooth="yes"/>
      <point x="25" y="317"/>
      <point x="24" y="179"/>
      <point x="134" y="111" type="curve" smooth="yes"/>
      <point x="530" y="-136" type="line" smooth="yes"/>
      <point x="559" y="-154"/>
      <point x="592" y="-161"/>
      <point x="624" y="-159" type="curve"/>
      <point x="663" y="-157"/>
      <point x="701" y="-142"/>
    </contour>
  </outline>
</glyph>
<glyph name="igrave" format="1">
  <advance width="1019"/>
  <unicode hex="00EC"/>
  <outline>
    <contour>
      <point x="353" y="-71" type="curve" smooth="yes"/>
      <point x="632" y="506" type="line"/>
      <point x="891" y="662" type="line" smooth="yes"/>
      <point x="965" y="706"/>
      <point x="991" y="807"/>
      <point x="946" y="881" type="curve" smooth="yes"/>
      <point x="902" y="955"/>
      <point x="801" y="981"/>
      <point x="727" y="936" type="curve" smooth="yes"/>
      <point x="670" y="902" type="line"/>
      <point x="679" y="962"/>
      <point x="654" y="1026"/>
      <point x="602" y="1061" type="curve" smooth="yes"/>
      <point x="302" y="1261" type="line" smooth="yes"/>
      <point x="230" y="1309"/>
      <point x="128" y="1289"/>
      <point x="80" y="1217" type="curve" smooth="yes"/>
      <point x="32" y="1145"/>
      <point x="52" y="1043"/>
      <point x="124" y="995" type="curve" smooth="yes"/>
      <point x="424" y="795" type="line" smooth="yes"/>
      <point x="436" y="787"/>
      <point x="449" y="781"/>
      <point x="462" y="777" type="curve"/>
      <point x="426" y="756" type="line" smooth="yes"/>
      <point x="404" y="742"/>
      <point x="376" y="712"/>
      <point x="365" y="688" type="curve" smooth="yes"/>
      <point x="65" y="69" type="line" smooth="yes"/>
      <point x="27" y="-9"/>
      <point x="62" y="-107"/>
      <point x="139" y="-145" type="curve" smooth="yes"/>
      <point x="217" y="-183"/>
      <point x="315" y="-148"/>
    </contour>
  </outline>
</glyph>
<glyph name="icircumflex" format="1">
  <advance width="1023"/>
  <unicode hex="00EE"/>
  <outline>
    <contour>
      <point x="353" y="-71" type="curve" smooth="yes"/>
      <point x="632" y="506" type="line"/>
      <point x="891" y="662" type="line" smooth="yes"/>
      <point x="958" y="702"/>
      <point x="985" y="789"/>
      <point x="957" y="860" type="curve"/>
      <point x="967" y="880"/>
      <point x="973" y="904"/>
      <point x="973" y="928" type="curve" smooth="yes"/>
      <point x="973" y="1014"/>
      <point x="899" y="1088"/>
      <point x="813" y="1088" type="curve" smooth="yes"/>
      <point x="213" y="1088" type="line" smooth="yes"/>
      <point x="127" y="1088"/>
      <point x="53" y="1014"/>
      <point x="53" y="928" type="curve" smooth="yes"/>
      <point x="53" y="842"/>
      <point x="127" y="768"/>
      <point x="213" y="768" type="curve" smooth="yes"/>
      <point x="447" y="768" type="line"/>
      <point x="426" y="756" type="line" smooth="yes"/>
      <point x="404" y="742"/>
      <point x="376" y="712"/>
      <point x="365" y="688" type="curve" smooth="yes"/>
      <point x="65" y="69" type="line" smooth="yes"/>
      <point x="27" y="-9"/>
      <point x="62" y="-107"/>
      <point x="139" y="-145" type="curve" smooth="yes"/>
      <point x="217" y="-183"/>
      <point x="315" y="-148"/>
    </contour>
  </outline>
</glyph>
<glyph name="ntilde" format="1">
  <advance width="1024"/>
  <unicode hex="00F1"/>
  <outline>
    <contour>
      <point x="632" y="787" type="line" smooth="yes"/>
      <point x="610" y="828"/>
      <point x="579" y="856"/>
      <point x="545" y="870" type="curve"/>
      <point x="715" y="926" type="line"/>
      <point x="676" y="897"/>
      <point x="650" y="850"/>
      <point x="650" y="799" type="curve" smooth="yes"/>
      <point x="650" y="752" type="line"/>
    </contour>
    <contour>
      <point x="370" y="-1" type="curve" smooth="yes"/>
      <point x="370" y="45" type="line"/>
      <point x="502" y="344" type="line"/>
      <point x="668" y="25" type="line" smooth="yes"/>
      <point x="751" y="-134"/>
      <point x="970" y="-80"/>
      <point x="970" y="99" type="curve" smooth="yes"/>
      <point x="970" y="799" type="line" smooth="yes"/>
      <point x="970" y="884"/>
      <point x="898" y="957"/>
      <point x="813" y="959" type="curve"/>
      <point x="865" y="976" type="line" smooth="yes"/>
      <point x="947" y="1004"/>
      <point x="993" y="1097"/>
      <point x="966" y="1179" type="curve" smooth="yes"/>
      <point x="938" y="1261"/>
      <point x="845" y="1307"/>
      <point x="763" y="1280" type="curve" smooth="yes"/>
      <point x="163" y="1080" type="line" smooth="yes"/>
      <point x="81" y="1052"/>
      <point x="35" y="959"/>
      <point x="62" y="877" type="curve" smooth="yes"/>
      <point x="90" y="795"/>
      <point x="183" y="749"/>
      <point x="265" y="776" type="curve" smooth="yes"/>
      <point x="360" y="808" type="line"/>
      <point x="354" y="799"/>
      <point x="348" y="789"/>
      <point x="343" y="777" type="curve" smooth="yes"/>
      <point x="64" y="144" type="line" smooth="yes"/>
      <point x="56" y="127"/>
      <point x="50" y="98"/>
      <point x="50" y="79" type="curve" smooth="yes"/>
      <point x="50" y="-1" type="line" smooth="yes"/>
      <point x="50" y="-87"/>
      <point x="124" y="-161"/>
      <point x="210" y="-161" type="curve" smooth="yes"/>
      <point x="296" y="-161"/>
      <point x="370" y="-87"/>
    </contour>
  </outline>
</glyph>
<glyph name="ograve" format="1">
  <advance width="1024"/>
  <unicode hex="00F2"/>
  <outline>
    <contour>
      <point x="648" y="839" type="curve" smooth="yes"/>
      <point x="696" y="911"/>
      <point x="676" y="1013"/>
      <point x="604" y="1061" type="curve" smooth="yes"/>
      <point x="304" y="1261" type="line" smooth="yes"/>
      <point x="232" y="1309"/>
      <point x="130" y="1289"/>
      <point x="82" y="1217" type="curve" smooth="yes"/>
      <point x="34" y="1145"/>
      <point x="54" y="1043"/>
      <point x="126" y="995" type="curve" smooth="yes"/>
      <point x="426" y="795" type="line" smooth="yes"/>
      <point x="498" y="747"/>
      <point x="600" y="767"/>
    </contour>
    <contour>
      <point x="773" y="-45" type="curve" smooth="yes"/>
      <point x="966" y="622" type="line" smooth="yes"/>
      <point x="1010" y="774"/>
      <point x="865" y="885"/>
      <point x="730" y="804" type="curve" smooth="yes"/>
      <point x="133" y="446" type="line" smooth="yes"/>
      <point x="30" y="385"/>
      <point x="22" y="258"/>
      <point x="116" y="183" type="curve" smooth="yes"/>
      <point x="510" y="-127" type="line" smooth="yes"/>
      <point x="537" y="-148"/>
      <point x="569" y="-159"/>
      <point x="601" y="-160" type="curve"/>
      <point x="676" y="-168"/>
      <point x="751" y="-120"/>
    </contour>
    <contour>
      <point x="529" y="265" type="line"/>
      <point x="497" y="291" type="line"/>
      <point x="545" y="320" type="line"/>
    </contour>
  </outline>
</glyph>
<glyph name="oacute" format="1">
  <advance width="1024"/>
  <unicode hex="00F3"/>
  <outline>
    <contour>
      <point x="382" y="839" type="curve" smooth="yes"/>
      <point x="430" y="767"/>
      <point x="532" y="747"/>
      <point x="604" y="795" type="curve" smooth="yes"/>
      <point x="904" y="995" type="line" smooth="yes"/>
      <point x="976" y="1043"/>
      <point x="996" y="1145"/>
      <point x="948" y="1217" type="curve" smooth="yes"/>
      <point x="900" y="1289"/>
      <point x="798" y="1309"/>
      <point x="726" y="1261" type="curve" smooth="yes"/>
      <point x="426" y="1061" type="line" smooth="yes"/>
      <point x="354" y="1013"/>
      <point x="334" y="911"/>
    </contour>
    <contour>
      <point x="773" y="-45" type="curve" smooth="yes"/>
      <point x="966" y="622" type="line" smooth="yes"/>
      <point x="1010" y="774"/>
      <point x="865" y="885"/>
      <point x="730" y="804" type="curve" smooth="yes"/>
      <point x="133" y="446" type="line" smooth="yes"/>
      <point x="30" y="385"/>
      <point x="22" y="258"/>
      <point x="116" y="183" type="curve" smooth="yes"/>
      <point x="510" y="-127" type="line" smooth="yes"/>
      <point x="537" y="-148"/>
      <point x="569" y="-159"/>
      <point x="601" y="-160" type="curve"/>
      <point x="676" y="-168"/>
      <point x="751" y="-120"/>
    </contour>
    <contour>
      <point x="529" y="265" type="line"/>
      <point x="497" y="291" type="line"/>
      <point x="545" y="320" type="line"/>
    </contour>
  </outline>
</glyph>
<glyph name="ocircumflex" format="1">
  <advance width="1025"/>
  <unicode hex="00F4"/>
  <outline>
    <contour>
      <point x="773" y="-45" type="curve" smooth="yes"/>
      <point x="966" y="622" type="line" smooth="yes"/>
      <point x="988" y="699"/>
      <point x="962" y="766"/>
      <point x="912" y="802" type="curve"/>
      <point x="950" y="832"/>
      <point x="975" y="878"/>
      <point x="975" y="928" type="curve" smooth="yes"/>
      <point x="975" y="1014"/>
      <point x="901" y="1088"/>
      <point x="815" y="1088" type="curve" smooth="yes"/>
      <point x="215" y="1088" type="line" smooth="yes"/>
      <point x="129" y="1088"/>
      <point x="55" y="1014"/>
      <point x="55" y="928" type="curve" smooth="yes"/>
      <point x="55" y="842"/>
      <point x="129" y="768"/>
      <point x="215" y="768" type="curve" smooth="yes"/>
      <point x="670" y="768" type="line"/>
      <point x="133" y="446" type="line" smooth="yes"/>
      <point x="30" y="385"/>
      <point x="22" y="258"/>
      <point x="116" y="183" type="curve" smooth="yes"/>
      <point x="510" y="-127" type="line" smooth="yes"/>
      <point x="537" y="-148"/>
      <point x="569" y="-159"/>
      <point x="601" y="-160" type="curve"/>
      <point x="676" y="-168"/>
      <point x="751" y="-120"/>
    </contour>
    <contour>
      <point x="529" y="265" type="line"/>
      <point x="497" y="291" type="line"/>
      <point x="545" y="320" type="line"/>
    </contour>
  </outline>
</glyph>
<glyph name="otilde" format="1">
  <advance width="1024"/>
  <unicode hex="00F5"/>
  <outline>
    <contour>
      <point x="63" y="877" type="curve" smooth="yes"/>
      <point x="91" y="795"/>
      <point x="184" y="749"/>
      <point x="266" y="776" type="curve" smooth="yes"/>
      <point x="866" y="976" type="line" smooth="yes"/>
      <point x="948" y="1004"/>
      <point x="994" y="1097"/>
      <point x="967" y="1179" type="curve" smooth="yes"/>
      <point x="939" y="1261"/>
      <point x="846" y="1307"/>
      <point x="764" y="1280" type="curve" smooth="yes"/>
      <point x="164" y="1080" type="line" smooth="yes"/>
      <point x="82" y="1052"/>
      <point x="36" y="959"/>
    </contour>
    <contour>
      <point x="773" y="-45" type="curve" smooth="yes"/>
      <point x="966" y="622" type="line" smooth="yes"/>
      <point x="1010" y="774"/>
      <point x="865" y="885"/>
      <point x="730" y="804" type="curve" smooth="yes"/>
      <point x="133" y="446" type="line" smooth="yes"/>
      <point x="30" y="385"/>
      <point x="22" y="258"/>
      <point x="116" y="183" type="curve" smooth="yes"/>
      <point x="510" y="-127" type="line" smooth="yes"/>
      <point x="537" y="-148"/>
      <point x="569" y="-159"/>
      <point x="601" y="-160" type="curve"/>
      <point x="676" y="-168"/>
      <point x="751" y="-120"/>
    </contour>
    <contour>
      <point x="529" y="265" type="line"/>
      <point x="497" y="291" type="line"/>
      <point x="545" y="320" type="line"/>
    </contour>
  </outline>
</glyph>
<glyph name="ugrave" format="1">
  <advance width="1019"/>
  <unicode hex="00F9"/>
  <outline>
    <contour>
      <point x="958" y="97" type="curve" smooth="yes"/>
      <point x="969" y="797" type="line" smooth="yes"/>
      <point x="970" y="883"/>
      <point x="898" y="958"/>
      <point x="811" y="959" type="curve" smooth="yes"/>
      <point x="725" y="960"/>
      <point x="650" y="888"/>
      <point x="649" y="801" type="curve" smooth="yes"/>
      <point x="643" y="386" type="line"/>
      <point x="370" y="557" type="line"/>
      <point x="370" y="799" type="line" smooth="yes"/>
      <point x="370" y="810"/>
      <point x="369" y="821"/>
      <point x="366" y="832" type="curve"/>
      <point x="422" y="795" type="line" smooth="yes"/>
      <point x="494" y="747"/>
      <point x="596" y="767"/>
      <point x="644" y="839" type="curve" smooth="yes"/>
      <point x="692" y="911"/>
      <point x="672" y="1013"/>
      <point x="600" y="1061" type="curve" smooth="yes"/>
      <point x="300" y="1261" type="line" smooth="yes"/>
      <point x="228" y="1309"/>
      <point x="126" y="1289"/>
      <point x="78" y="1217" type="curve" smooth="yes"/>
      <point x="30" y="1145"/>
      <point x="50" y="1043"/>
      <point x="122" y="995" type="curve" smooth="yes"/>
      <point x="180" y="956" type="line"/>
      <point x="107" y="942"/>
      <point x="50" y="875"/>
      <point x="50" y="799" type="curve" smooth="yes"/>
      <point x="50" y="469" type="line" smooth="yes"/>
      <point x="50" y="420"/>
      <point x="84" y="359"/>
      <point x="125" y="334" type="curve" smooth="yes"/>
      <point x="713" y="-36" type="line" smooth="yes"/>
      <point x="828" y="-108"/>
      <point x="956" y="-38"/>
    </contour>
  </outline>
</glyph>
<glyph name="uacute" format="1">
  <advance width="1020"/>
  <unicode hex="00FA"/>
  <outline>
    <contour>
      <point x="958" y="97" type="curve" smooth="yes"/>
      <point x="969" y="797" type="line" smooth="yes"/>
      <point x="970" y="873"/>
      <point x="914" y="940"/>
      <point x="841" y="956" type="curve"/>
      <point x="900" y="995" type="line" smooth="yes"/>
      <point x="972" y="1043"/>
      <point x="992" y="1145"/>
      <point x="944" y="1217" type="curve" smooth="yes"/>
      <point x="896" y="1289"/>
      <point x="794" y="1309"/>
      <point x="722" y="1261" type="curve" smooth="yes"/>
      <point x="422" y="1061" type="line" smooth="yes"/>
      <point x="350" y="1013"/>
      <point x="330" y="911"/>
      <point x="378" y="839" type="curve" smooth="yes"/>
      <point x="426" y="767"/>
      <point x="528" y="747"/>
      <point x="600" y="795" type="curve" smooth="yes"/>
      <point x="652" y="830" type="line"/>
      <point x="650" y="821"/>
      <point x="649" y="811"/>
      <point x="649" y="801" type="curve" smooth="yes"/>
      <point x="643" y="386" type="line"/>
      <point x="370" y="557" type="line"/>
      <point x="370" y="799" type="line" smooth="yes"/>
      <point x="370" y="885"/>
      <point x="296" y="959"/>
      <point x="210" y="959" type="curve" smooth="yes"/>
      <point x="124" y="959"/>
      <point x="50" y="885"/>
      <point x="50" y="799" type="curve" smooth="yes"/>
      <point x="50" y="469" type="line" smooth="yes"/>
      <point x="50" y="420"/>
      <point x="84" y="359"/>
      <point x="125" y="334" type="curve" smooth="yes"/>
      <point x="713" y="-36" type="line" smooth="yes"/>
      <point x="828" y="-108"/>
      <point x="956" y="-38"/>
    </contour>
  </outline>
</glyph>
<glyph name="tilde" format="1">
  <advance width="1019"/>
  <unicode hex="02DC"/>
  <outline>
    <contour>
      <point x="58" y="877" type="curve" smooth="yes"/>
      <point x="86" y="795"/>
      <point x="179" y="749"/>
      <point x="261" y="776" type="curve" smooth="yes"/>
      <point x="861" y="976" type="line" smooth="yes"/>
      <point x="943" y="1004"/>
      <point x="989" y="1097"/>
      <point x="962" y="1179" type="curve" smooth="yes"/>
      <point x="934" y="1261"/>
      <point x="841" y="1307"/>
      <point x="759" y="1280" type="curve" smooth="yes"/>
      <point x="159" y="1080" type="line" smooth="yes"/>
      <point x="77" y="1052"/>
      <point x="31" y="959"/>
    </contour>
  </outline>
</glyph>
<glyph name="bullet" format="1">
  <advance width="618"/>
  <unicode hex="2022"/>
  <outline>
    <contour>
      <point x="522" y="90" type="curve" smooth="yes"/>
      <point x="579" y="147"/>
      <point x="583" y="241"/>
      <point x="534" y="303" type="curve"/>
      <point x="583" y="365"/>
      <point x="579" y="459"/>
      <point x="522" y="516" type="curve" smooth="yes"/>
      <point x="465" y="573"/>
      <point x="371" y="577"/>
      <point x="309" y="528" type="curve"/>
      <point x="247" y="577"/>
      <point x="153" y="573"/>
      <point x="96" y="516" type="curve" smooth="yes"/>
      <point x="39" y="459"/>
      <point x="35" y="365"/>
      <point x="84" y="303" type="curve"/>
      <point x="35" y="241"/>
      <point x="39" y="147"/>
      <point x="96" y="90" type="curve" smooth="yes"/>
      <point x="153" y="33"/>
      <point x="247" y="29"/>
      <point x="309" y="78" type="curve"/>
      <point x="371" y="29"/>
      <point x="465" y="33"/>
    </contour>
  </outline>
</glyph>
